<?xml version="1.0" encoding="UTF-8"?>
<svg width="224px" height="68px" viewBox="0 0 224 68" version="1.1" xmlns="http://www.w3.org/2000/svg" xmlns:xlink="http://www.w3.org/1999/xlink">
    <!-- Generator: Sketch 43.2 (39069) - http://www.bohemiancoding.com/sketch -->
    <title>lcclogo</title>
    <desc>Created with Sketch.</desc>
    <defs></defs>
    <g id="Page-1" stroke="none" stroke-width="1" fill="none" fill-rule="evenodd">
        <g id="Desktop-HD-Copy-2" transform="translate(-520.000000, -1388.000000)" fill="#FFFFFF">
            <g id="lcclogo" transform="translate(520.000000, 1388.000000)">
                <path d="M223.556198,63.976656 C223.556198,64.1343494 223.556198,64.3342424 223.493655,64.6007665 C223.446749,64.8695116 223.397608,65.0694046 223.337299,65.158246 C222.845893,65.1116043 221.347105,65.0893939 218.840935,65.0893939 L218.190939,65.0893939 L218.13063,64.8895009 L218.173069,63.2015152 C218.215509,62.6240463 218.240079,61.8666738 218.240079,60.9538289 C218.240079,60.0209947 218.213275,59.2658431 218.173069,58.6883743 L218.13063,56.9759572 L218.190939,56.7982745 L219.578044,56.7982745 L219.647287,56.9759572 C219.578044,58.3130196 219.535604,59.6434189 219.535604,60.9538289 C219.535604,61.9577362 219.557941,63.1348841 219.647287,64.4675045 C221.027691,64.5119251 222.05741,64.4919358 222.705172,64.3786631 C223.087129,64.3142531 223.357402,64.1809911 223.556198,63.976656 Z M133.104,27.9914652 L132.90297,29.3485169 L111.754646,39.1743708 C112.069592,39.8806595 112.719588,41.0378182 113.697933,42.6169733 C115.487097,45.5331907 118.263541,46.9746417 121.971422,46.9746417 C126.306962,46.9746417 129.952301,45.0623316 132.90297,41.2399323 C133.351937,42.0861462 133.3296,43.3721248 132.838194,45.0823209 C128.72602,48.6426381 124.721061,50.4194652 120.81215,50.4194652 C116.06785,50.4194652 112.225949,48.9291515 109.273046,45.9951658 C106.30004,43.0389697 104.825822,39.3276221 104.825822,34.8167023 C104.825822,30.4168342 106.210693,26.7698966 109.002772,23.8781105 C111.957909,20.8330731 115.62335,19.2983387 120.001331,19.2983387 C123.957149,19.2983387 127.180325,20.564328 129.684261,23.0740963 C130.267248,23.7026488 131.406416,25.350656 133.104,27.9914652 Z M127.336681,30.1036684 C126.979295,28.3001889 126.309196,26.6344135 125.328618,25.1019002 C123.852166,22.7653725 121.571596,21.5882246 118.466804,21.5882246 C115.69036,21.5882246 113.680063,22.8320036 112.431446,25.2995722 C111.357053,27.5050588 110.798638,30.4168342 110.753964,34.0149091 C110.753964,35.2364777 110.863414,36.302574 111.084547,37.2620606 L127.336681,30.1036684 Z M163.354503,27.9914652 L163.128903,29.3485169 L142.002915,39.1743708 C142.315628,39.8806595 142.96339,41.0378182 143.950669,42.6169733 C145.733133,45.5331907 148.48724,46.9746417 152.195121,46.9746417 C156.530661,46.9746417 160.198337,45.0623316 163.15124,41.2399323 C163.593505,42.0861462 163.573402,43.3721248 163.08423,45.0823209 C158.947485,48.6426381 154.94476,50.4194652 151.053719,50.4194652 C146.318352,50.4194652 142.449648,48.9291515 139.494511,45.9951658 C136.546075,43.0389697 135.069624,39.3276221 135.069624,34.8167023 C135.069624,30.4168342 136.456729,26.7698966 139.226471,23.8781105 C142.179374,20.8330731 145.869386,19.2983387 150.2496,19.2983387 C154.187549,19.2983387 157.404024,20.564328 159.928063,23.0740963 C160.515517,23.7026488 161.656919,25.350656 163.354503,27.9914652 Z M157.562614,30.1036684 C157.207461,28.3001889 156.535129,26.6344135 155.55455,25.1019002 C154.078099,22.7653725 151.797529,21.5882246 148.71284,21.5882246 C145.940863,21.5882246 143.90823,22.8320036 142.657378,25.2995722 C141.580752,27.5050588 141.02457,30.4168342 140.977663,34.0149091 C140.977663,35.2364777 141.089347,36.302574 141.312713,37.2620606 L157.562614,30.1036684 Z M68.3880713,60.3119501 L66.8423762,62.668467 L68.9688238,65.0072157 L52.6474455,65.0072157 L52.6474455,61.7156435 L50.076499,61.7156435 L50.076499,60.3141711 L68.3880713,60.3141711 L68.3880713,60.3119501 Z M18.1730851,62.6462567 L51.7986535,62.6462567 L51.7986535,67.2926595 L18.1730851,67.2926595 L18.1730851,62.6462567 Z M1.49655446,60.3119501 L19.7857901,60.3119501 L19.7857901,61.6912121 L17.2349465,61.6912121 L17.2349465,65.0049947 L0.897932673,65.0049947 L3.01767921,62.6440357 L1.49655446,60.3119501 Z M18.1105426,10.3186988 C18.1105426,9.9611123 18.5103683,9.69458824 19.0218772,9.69458824 C19.5155168,9.69458824 19.9198099,9.9611123 19.9198099,10.3186988 C19.9198099,10.6762852 19.5177505,10.9650196 19.0241109,10.9650196 L18.8029782,10.9428093 C18.1127762,11.7201711 18.0435327,12.697426 18.0435327,12.697426 L18.0435327,14.0944563 L9.54891089,14.0944563 C9.54891089,14.0944563 9.56901386,13.0994332 9.54891089,12.7418467 C9.4997703,12.3220713 8.96592475,11.3625847 8.62864158,10.9650196 L8.51919208,10.9650196 C8.00098218,10.9650196 7.60115644,10.6762852 7.60115644,10.3186988 C7.60115644,9.9611123 8.00098218,9.69458824 8.51919208,9.69458824 C9.01059802,9.69458824 9.41042376,9.9611123 9.41042376,10.3186988 L9.39032079,10.4297504 C11.4899644,12.633016 13.1473426,12.8973191 13.3684752,10.3409091 L14.1971644,10.3409091 C14.2440713,12.7884884 15.5172594,12.764057 18.1529822,10.4963815 C18.1328792,10.4541818 18.1105426,10.3875508 18.1105426,10.3186988 Z M12.9463129,9.45471658 C12.9463129,9.09935116 13.3461386,8.81061676 13.8353109,8.81061676 C14.3535208,8.81061676 14.7533465,9.09935116 14.7533465,9.45471658 C14.7533465,9.80786096 14.3535208,10.072164 13.8353109,10.072164 C13.3483723,10.072164 12.9463129,9.80786096 12.9463129,9.45471658 Z M9.57124752,15.187205 C9.57124752,15.256057 9.50200396,15.9690089 10.0403168,16.1911123 C11.2688317,16.6775187 13.5471683,16.0756185 14.2418376,19.2805704 C14.2865109,19.3916221 14.445101,19.4338217 14.5344475,19.256139 C14.4428673,17.3882496 15.5351287,16.4798467 17.2818535,16.0334189 C17.7710257,15.8801676 18.2423287,15.7646738 18.3517782,15.4759394 C18.4411248,15.1672157 18.1998891,14.0766881 19.2251406,14.0766881 C19.3591604,14.0766881 19.6942099,14.1655294 19.7187802,14.5009055 C19.7857901,15.0783743 19.3144871,15.2316257 19.4708436,15.4337398 C19.6517703,15.6558431 19.5177505,15.8779465 19.4954139,15.8979358 C19.3390574,16.1000499 19.2497109,16.0112086 18.6421545,16.2755116 C17.9720554,16.5686881 17.6414733,16.9662531 17.5498931,17.2127879 C17.4806495,17.4348913 17.5029861,17.3882496 17.5498931,17.681426 C17.569996,18.010139 18.2199921,18.1678324 18.061402,18.2078111 C17.8804752,18.2366845 17.5253228,18.2766631 17.4359762,18.3877148 C17.3466297,18.5254189 17.0115802,18.9429733 16.5425109,18.989615 C16.0734416,19.0518039 16.0734416,18.9629626 15.7383921,19.1406453 C14.8248238,19.5648627 14.643897,20.2311729 14.5746535,20.5199073 C14.5344475,20.8108627 14.4853069,20.8797148 14.3557545,20.7908734 C14.2418376,20.6998111 14.3311842,20.5443387 14.1055842,20.2333939 C13.8598812,19.9202282 13.6566178,19.3449804 12.9664158,19.320549 C12.5174495,19.3005597 11.6262178,19.4093904 11.4028515,19.1006667 C10.9985584,18.5254189 10.6411723,18.6142602 10.6188356,18.4543458 C10.6188356,18.3655045 11.0231287,18.3210838 10.9784554,17.943508 C10.9337822,17.5415009 10.7528554,17.2994082 10.0805228,16.9862424 C9.41042376,16.6752977 8.82967129,16.6752977 8.72022178,16.5198253 C8.62864158,16.3643529 8.62864158,16.3199323 8.67108119,16.1400285 C8.74032475,15.8313048 8.70011881,15.9667879 8.44994851,15.7424635 C8.20424554,15.5003708 8.31816238,14.5186738 8.93912079,14.5608734 C9.39032079,14.5897469 9.57124752,14.989533 9.57124752,15.187205 Z M11.4899644,18.3233048 C11.5368713,18.6764492 11.8495842,18.925205 12.1868673,18.8785633 C12.5174495,18.8319216 12.7676198,18.5254189 12.7184792,18.1678324 C12.6760396,17.8324563 12.387897,17.5903636 12.0260436,17.6325633 C11.6932277,17.681426 11.4475248,17.9879287 11.4899644,18.3233048 Z M15.5150257,18.0989804 C15.559699,18.4543458 15.8746455,18.7008806 16.209695,18.6542389 C16.5447446,18.6120392 16.7904475,18.2966524 16.7457743,17.9679394 C16.7033347,17.6103529 16.4107248,17.3638182 16.0555723,17.4104599 C15.7160554,17.4526595 15.4703525,17.7702674 15.5150257,18.0989804 Z M19.2273743,32.2802816 L18.8722218,33.6617647 C18.7136317,33.3086203 18.2892356,33.4374403 17.9943921,33.615123 L18.532705,32.0137576 C18.8476515,31.6606132 19.1357941,31.7494545 19.2273743,32.2802816 Z M17.5722297,37.350902 C17.0830574,38.7479323 15.6043723,40.3315294 14.2865109,41.3043422 C13.0133228,42.1283458 14.0653782,41.1910695 14.0854812,41.1266595 C15.805402,39.3054118 16.3191446,38.5058396 17.0138139,36.8844848 C17.3041901,36.5957504 17.842503,36.8844848 17.5722297,37.350902 Z M19.5624238,27.4362068 L19.5624238,28.8798788 C19.3167208,28.6133547 19.0710178,28.6133547 18.8230812,28.8798788 L18.8230812,27.4362068 C19.0241109,26.989779 19.3412911,26.9498004 19.5624238,27.4362068 Z M18.2646653,23.3028627 C18.9146614,23.8603422 19.0040079,24.3223173 19.0933545,24.8553654 C19.0486812,24.7931765 18.512602,24.2556863 18.2646653,24.8131658 C18.1328792,24.3200963 17.9541861,23.9203102 17.5945663,23.6115865 C17.4627802,23.5893761 17.3935366,22.7675936 18.2646653,23.3028627 Z M16.7904475,27.4162175 L16.8552238,28.8576684 C16.6139881,28.6155758 16.3638178,28.6155758 16.1449188,28.9043102 L16.0756752,27.4784064 C16.2543683,27.0142103 16.5447446,26.9498004 16.7904475,27.4162175 Z M15.0258535,23.4827665 C15.6959525,23.9913832 15.9639921,24.2978859 16.1650218,24.8331551 C16.1203485,24.7687451 15.1576396,24.0091515 15.0705267,24.9020071 C14.916404,24.4133797 14.7354772,24.0979929 14.3758574,23.8381319 C14.2172673,23.8092585 14.1279208,23.0119073 15.0258535,23.4827665 Z M50.1010693,10.3186988 C50.1010693,9.9611123 50.5053624,9.6723779 51.0168713,9.6723779 C51.5105109,9.6723779 51.914804,9.9611123 51.914804,10.3186988 C51.914804,10.3875508 51.914804,10.4297504 51.8902337,10.4963815 C54.5036198,12.7418467 55.7812752,12.7862674 55.8460515,10.3409091 L56.6501703,10.3409091 C56.8757703,12.8751087 58.5286812,12.6085847 60.6305584,10.4297504 L60.6059881,10.3186988 C60.6059881,9.9611123 61.0303842,9.6723779 61.5240238,9.6723779 C62.013196,9.6723779 62.4130218,9.9611123 62.4130218,10.3186988 C62.4130218,10.6762852 62.013196,10.9650196 61.5240238,10.9650196 L61.3877703,10.9428093 C61.0527208,11.3425954 60.5144079,12.2954189 60.494305,12.7418467 C60.4496317,13.0994332 60.494305,14.0944563 60.494305,14.0944563 L51.9996832,14.0944563 L51.9996832,12.6996471 C51.9996832,12.6996471 51.9349069,11.7223922 51.217901,10.9450303 L51.0146376,10.9672406 C50.5031287,10.9650196 50.1010693,10.6762852 50.1010693,10.3186988 Z M55.285402,9.4302852 C55.285402,9.09935116 55.689695,8.81061676 56.1788673,8.81061676 C56.6702733,8.81061676 57.096903,9.09935116 57.096903,9.4302852 C57.096903,9.78342959 56.6702733,10.072164 56.1788673,10.072164 C55.689695,10.072164 55.285402,9.78342959 55.285402,9.4302852 Z M60.474202,15.1672157 C60.4496317,14.989533 60.6506614,14.5897469 61.0750574,14.5431052 C61.7027168,14.5208948 61.834503,15.5025918 61.5888,15.7224742 C61.343097,15.9667879 61.2738535,15.8135365 61.343097,16.1222602 C61.3877703,16.299943 61.3877703,16.3465847 61.2984238,16.5220463 C61.2090772,16.6775187 60.6037545,16.6775187 59.9358891,16.9884635 C59.2657901,17.2794189 59.087097,17.5437219 59.0424238,17.9212977 C58.9955168,18.3255258 59.4221465,18.3477362 59.3975762,18.4565668 C59.3975762,18.5876078 59.0178535,18.5254189 58.6157941,19.0806774 C58.3946614,19.3916221 57.4989624,19.3027807 57.0477624,19.320549 C56.3575604,19.3449804 56.1565307,19.9024599 55.9331644,20.2333939 C55.6874614,20.5443387 55.7969109,20.6998111 55.6628911,20.7908734 C55.5512079,20.8552834 55.5065347,20.8108627 55.4372911,20.5221283 C55.3725149,20.2333939 55.1960554,19.5670838 54.2981228,19.120656 C53.9675406,18.9651836 53.938503,19.0318146 53.4694337,18.989615 C53.0003644,18.922984 52.6876515,18.5231979 52.578202,18.3877148 C52.4866218,18.2544528 52.1493386,18.2366845 51.9728792,18.1878217 C51.7919525,18.1656114 52.4419485,18.010139 52.4866218,17.6569947 C52.5067248,17.3638182 52.5536317,17.4326702 52.4665188,17.1883565 C52.3749386,16.9462638 52.0622257,16.5686881 51.3898931,16.2755116 C50.7644673,16.0112086 50.6996911,16.1000499 50.5187644,15.8979358 C50.4986614,15.8535152 50.3601743,15.6558431 50.5388673,15.4093084 C50.7197941,15.2071943 50.2484911,15.0783743 50.2976317,14.5009055 C50.3400713,14.1433191 50.6550178,14.0766881 50.8091406,14.0766881 C51.8165228,14.0544777 51.5685861,15.1672157 51.682503,15.4759394 C51.7696158,15.7646738 52.2386851,15.8557362 52.7323248,16.0334189 C54.4768158,16.4798467 55.5735446,17.3660392 55.504301,19.256139 C55.5958812,19.4093904 55.729901,19.3694118 55.7745743,19.256139 C56.4893465,16.0578503 58.7721505,16.6575294 60.0006653,16.1666809 C60.5412119,15.9667879 60.4496317,15.256057 60.474202,15.1672157 Z M54.2802535,18.0989804 C54.3226931,17.7702674 54.0814574,17.4526595 53.7419406,17.4104599 C53.4113584,17.3638182 53.0919446,17.6103529 53.0517386,17.941287 C53.0048317,18.2944314 53.2527683,18.6120392 53.5878178,18.6342496 C53.9228673,18.6764492 54.2333465,18.4365775 54.2802535,18.0989804 Z M58.3075485,18.3233048 C58.3499881,17.9701604 58.1042851,17.6569947 57.7692356,17.6303422 C57.4297188,17.5881426 57.1192396,17.8302353 57.0745663,18.1656114 C57.0298931,18.4987665 57.2778297,18.8119323 57.6106455,18.8541319 C57.9479287,18.9007736 58.2584079,18.6542389 58.3075485,18.3233048 Z M50.793505,32.2602923 C50.8828515,31.7250232 51.1933307,31.6583922 51.4837069,31.9959893 L52.0421228,33.5929127 C51.7517465,33.4396613 51.3273505,33.2819679 51.1486574,33.6373333 L50.793505,32.2602923 Z M52.4464158,37.3264706 C52.2029465,36.8600535 52.7367921,36.5957504 53.029402,36.8600535 C53.699501,38.5058396 54.2110099,39.2832014 55.9331644,41.1066702 C55.9577347,41.1710802 57.0053228,42.1283458 55.7321347,41.2843529 C54.4120396,40.3315294 52.9422891,38.7479323 52.4464158,37.3264706 Z M50.4807921,27.4162175 C50.6840554,26.9498004 50.9945347,26.992 51.1955644,27.4384278 L51.1955644,28.8598895 C50.9744317,28.5933654 50.726495,28.5933654 50.4807921,28.8598895 L50.4807921,27.4162175 Z M51.7539802,23.3028627 C52.6251089,22.7675936 52.5826693,23.5671658 52.4240792,23.6138075 C52.0890297,23.9025419 51.9125703,24.300107 51.7740832,24.8153868 C51.5082772,24.2579073 50.9945347,24.7931765 50.9476277,24.8353761 C51.0392079,24.3223173 51.1285545,23.8381319 51.7539802,23.3028627 Z M53.2326653,27.4162175 C53.473901,26.9498004 53.7910812,27.0142103 53.9720079,27.4584171 L53.8826614,28.8843209 C53.6548277,28.6177968 53.433695,28.5933654 53.1656554,28.8598895 L53.2326653,27.4162175 Z M55.019596,23.4827665 C55.9085941,22.9874759 55.7991446,23.7914902 55.6651248,23.8092585 C55.3099723,24.0979929 55.1290455,24.4133797 54.9704554,24.9020071 C54.8610059,24.0091515 53.9206337,24.7665241 53.8804277,24.8131658 C54.0568871,24.2978859 54.3517307,23.9913832 55.019596,23.4827665 Z M45.763295,0.652759358 C48.244895,1.07031373 48.4861307,1.51896257 48.6246178,1.71663458 C48.7787406,2.2097041 48.7139644,2.74053119 48.6246178,3.74221747 C48.6246178,4.07093048 48.019295,4.60842068 48.019295,4.564 C47.9053782,3.07368627 47.7266851,3.52011408 47.1906059,3.05147594 C46.4579644,2.29188235 45.8973149,1.29685918 45.763295,0.652759358 Z M64.6332832,3.62894474 C65.3726257,3.96209982 65.0576792,5.05484848 64.9437624,5.18366845 C64.3630099,6.31639572 63.2662812,7.05155793 61.2559842,7.12040998 C61.8613069,6.83167558 62.7547723,6.65399287 63.0898218,5.16367914 C63.3131881,3.96209982 63.7353505,3.36242068 64.6332832,3.62894474 Z M24.0319842,0.603896613 C23.8979644,1.24799643 23.3373149,2.24968271 22.6270099,3.00705526 C22.0685941,3.47347237 21.8876673,3.02704456 21.7782178,4.49736898 C21.7782178,4.56177897 21.1706614,4.02873084 21.1706614,3.69335472 C21.0813149,2.69611052 21.0388752,2.16306239 21.1706614,1.67665597 C21.3046812,1.47232086 21.5503842,1.03033512 24.0319842,0.603896613 Z M5.18433267,3.58452406 C6.08226535,3.31577897 6.48209109,3.91990018 6.70769109,5.11703743 C7.06284356,6.60735116 7.96077624,6.78281283 8.54152871,7.07376827 C6.55356832,6.98492692 5.43450297,6.27419608 4.87385347,5.14146881 C4.76440396,4.9837754 4.42488713,3.91990018 5.18433267,3.58452406 Z M46.7483406,3.29578966 C47.1481663,3.49346168 47.349196,3.89768984 47.4876832,4.56177897 C47.574796,4.89271301 48.046099,5.07039572 49.0490139,4.98155437 C48.8502178,5.22808913 48.6290851,5.38134046 48.537505,5.55902317 C48.2672317,6.40523708 48.0885386,7.36250267 47.9567525,8.45080927 C47.8182653,8.47079857 47.6641426,7.42691266 47.6641426,7.42691266 C47.2174099,7.80448841 46.6388911,8.14208556 46.008998,8.45080927 L45.5399287,8.62849198 C44.7358099,9.36365419 44.0210376,10.6962745 42.9466455,11.9622638 C42.3413228,12.4553333 41.6265505,12.4731016 40.9341149,12.4553333 C40.7799921,12.497533 39.7726099,12.2310089 39.7726099,12.2310089 C39.7927129,12.2554403 41.1128079,11.6979608 41.1128079,11.6979608 C41.4478574,11.4958467 41.9616,11.2315437 42.3413228,10.6518538 C42.7210455,9.95889127 42.9689822,8.98607843 43.056095,7.67344742 C43.056095,7.67344742 42.9198416,6.18313369 43.7954376,5.33914082 C43.8870178,5.18144742 43.998701,5.05040642 44.1103842,4.80387166 C44.2421703,5.02819608 44.2421703,5.11703743 44.3114139,5.27028877 C44.6017901,5.62787522 44.7804832,5.78112656 44.9815129,6.20534403 C45.0016158,6.27197504 45.0909624,6.29418538 45.1624396,6.36303743 C45.1177663,5.82776827 45.1423366,5.38134046 45.2942257,4.98155437 C45.5600317,4.2752656 46.3440475,3.56231373 46.7483406,3.29578966 Z M60.8561584,3.91990018 C61.7250535,3.76220677 62.3951525,3.97986809 62.7748752,4.56177897 C62.7547723,4.9637861 62.8217822,7.02934759 60.2463683,6.71840285 C59.8264396,6.27419608 59.2657901,5.93659893 58.9285069,6.05209269 C58.7297109,6.29418538 58.9285069,6.56070945 59.3082297,6.89608556 C59.5561663,7.20925134 59.5360634,7.45134403 59.5360634,7.67566845 C57.7491327,7.93997148 56.2704475,6.78503387 55.8907248,4.82830303 C55.6472554,4.21085561 54.9079129,3.74221747 54.170804,3.27580036 C55.709798,3.16252763 57.4096158,3.45126203 57.7223287,3.16252763 C58.2785109,2.60504813 58.5487842,2.49621747 59.087097,2.36295544 C59.3082297,2.36295544 60.2039287,2.45179679 60.6305584,2.63170053 C61.0549545,2.63170053 61.5016871,2.52064884 61.8836436,2.34296613 C61.794297,2.89600357 61.4547802,3.42905169 60.8561584,3.91990018 Z M8.94135446,3.87325847 C8.34049901,3.38463102 8.02555248,2.82715152 7.91386931,2.29188235 C8.29359208,2.4717861 8.74255842,2.56062745 9.17142178,2.56062745 C9.59358416,2.40737611 10.4870495,2.29188235 10.7104158,2.31853476 C11.2487287,2.43180749 11.539105,2.56062745 12.0751842,3.09811765 C12.3901307,3.40684135 14.0877149,3.09811765 15.6512792,3.22915865 C14.8918337,3.69557576 14.1770614,4.14200357 13.9291248,4.78832442 C13.5270653,6.74505526 12.0506139,7.89777184 10.2860198,7.62902674 C10.2614495,7.40914439 10.2413465,7.16483066 10.4848158,6.85166488 C10.8690059,6.52073084 11.067802,6.24976471 10.8690059,6.00767201 C10.5317228,5.89662032 9.99564356,6.22755437 9.57124752,6.67398217 C6.99806733,6.98492692 7.04274059,4.91714439 7.02263762,4.51735829 C7.4023604,3.93988948 8.07245941,3.7177861 8.94135446,3.87325847 Z M31.2310812,16.3443636 C31.139501,16.0756185 31.4097743,15.9423565 31.610804,16.1000499 C32.0798733,16.9862424 32.4193901,17.4126809 33.5786614,18.3877148 C33.5987644,18.4343565 33.6233347,18.5853868 33.4446416,18.5009875 C32.5511762,17.9701604 31.570598,17.1239465 31.2310812,16.3443636 Z M30.1611564,13.5880606 C30.223699,13.2993262 30.4269624,13.2771159 30.6302257,13.4525775 L31.0099485,14.3232228 C30.8066851,14.2321604 30.5163089,14.1433191 30.4023921,14.3432121 L30.1611564,13.5880606 Z M29.9824634,10.9428093 C30.1365861,10.6962745 30.3376158,10.7162638 30.4716356,10.9650196 L30.4716356,11.7401604 C30.3130455,11.5869091 30.1611564,11.5869091 29.9824634,11.7401604 L29.9824634,10.9428093 Z M34.762503,37.3042602 C34.762503,36.9266845 35.0551129,36.6401711 35.412499,36.6401711 C35.7922218,36.6401711 36.0848317,36.9266845 36.0848317,37.3042602 C36.0848317,37.6596257 35.7922218,37.9750125 35.412499,37.9750125 C35.0573465,37.9727914 34.762503,37.6596257 34.762503,37.3042602 Z M34.5391366,41.6441604 C34.2040871,41.9728734 33.9807208,42.3304599 33.8891406,42.730246 L33.8690376,44.0628663 L34.0946376,44.8846488 L34.1839842,46.9990731 C34.1147406,47.4854795 33.422305,47.4654902 33.3106218,47.6187415 C33.1319287,47.9319073 33.2212752,48.5959964 33.1118257,48.9735722 C32.9554693,49.48441 32.5735129,49.7553761 32.5310733,49.8619857 C32.4417267,50.0174581 32.5310733,50.5549483 32.5310733,50.5549483 C32.6204198,50.8414617 32.5735129,54.6216613 32.7298693,54.865975 C32.8661228,55.3079608 32.9554693,55.7343993 33.0001426,56.1319643 C32.9755723,56.5761711 32.8214495,56.7982745 32.5310733,56.7982745 C32.3054733,56.8426952 32.1714535,56.6872228 32.1267802,56.3762781 C32.1513505,55.5567166 32.1022099,54.4439786 31.9927604,52.9780963 C31.9726574,52.5316684 31.9235168,52.109672 31.8118337,51.7298752 L30.9831446,50.3084135 C30.8960317,50.1551622 30.6927683,49.9530481 30.4269624,49.7287237 L30.6525624,49.1268235 C30.7218059,48.8403102 30.7419089,48.5271444 30.7218059,48.1917683 C31.3025584,48.171779 31.7716277,47.9274652 32.1267802,47.5254581 C32.930899,46.8813583 32.4841663,44.6136827 31.5437941,44.0384349 C31.1216317,43.7452585 30.6034218,43.7963422 29.9578931,43.9029519 C29.1984475,44.1028449 28.6623683,44.369369 28.5730218,45.0379002 C28.5037782,45.5931586 28.637798,45.7930517 29.0420911,45.7708414 C29.4419168,45.6575686 29.3525703,45.351066 29.6876198,45.0578895 C30.0919129,44.7935865 30.6704317,44.8157968 31.0501545,44.9712692 C31.6778139,45.3710553 31.7448238,46.5259929 31.5415604,46.9057897 C31.1886416,47.3033547 30.7821149,47.3722068 30.2460356,47.2189554 C30.0695762,47.1501034 29.752396,46.8413797 29.9310891,46.5259929 C30.1790257,46.3038895 30.3108119,46.3483102 30.469402,46.4615829 C30.6905347,46.6414866 30.9384713,46.6414866 31.0970614,46.4149412 C31.2489505,46.1728485 31.1171644,45.9063244 30.8267881,45.7086524 C30.5989545,45.5709483 30.2683723,45.550959 29.799303,45.6620107 C29.2408871,45.9307558 29.0152871,46.4638039 29.0599604,46.9524314 C29.1493069,47.5543316 29.4195802,48.0873797 29.9087525,48.1295793 C29.977996,48.3539037 29.977996,48.5515758 29.9288554,48.7514688 C29.7501624,49.2423173 29.5491327,49.5999037 29.328,49.8419964 C29.0800634,49.9774795 28.7695842,49.9774795 28.3876277,49.8619857 C27.9833347,49.6376613 27.6706218,49.0424242 27.4695921,48.10959 C27.3154693,47.4832585 27.0496634,47.061262 26.640903,46.8436007 C26.2857505,46.7503173 26.0847208,46.5504242 26.0400475,46.2417005 C26.0400475,45.815262 26.4644436,45.7308627 27.1099723,45.7952727 C27.6929584,45.5709483 27.8292119,45.3954866 28.0972515,44.7958075 C28.1396911,44.7513868 28.3407208,44.4404421 28.3675248,44.3982424 C28.432301,44.2183387 28.3876277,44.0162246 28.3675248,43.8407629 L28.3876277,43.5498075 C28.5439842,42.5503422 29.0577267,42.6836043 29.4821228,42.4615009 C29.526796,42.4370695 29.5960396,42.3726595 29.5960396,42.2838182 C29.5491327,40.7290945 30.3331485,40.0827736 32.0955089,39.9717219 C32.7231683,38.9056257 33.395501,38.5458182 34.5324356,38.925615 L34.5324356,41.6441604 L34.5391366,41.6441604 Z M29.1537743,50.799262 C29.5133941,50.734852 29.8238733,50.5749376 30.0718099,50.3572763 C30.1142495,50.5105276 30.1812594,50.6215793 30.2728396,50.7126417 C30.1812594,51.84759 30.1611564,53.0202959 30.203596,54.2907273 L30.3621861,54.5283779 C30.4046257,54.9792478 30.4046257,55.0636471 30.2929426,55.2435508 C30.1611564,55.3323922 29.9824634,55.2635401 29.8908832,55.1969091 C29.6429465,54.930385 29.5759366,54.7549234 29.5111604,54.4617469 C29.4218139,53.9708984 29.3972436,53.353451 29.3972436,52.6182888 C29.3324673,52.5538788 29.2408871,52.3761961 29.2163168,52.1518717 L29.1537743,50.799262 Z M36.328301,38.994467 C36.6186772,38.7479323 36.9984,38.6813012 37.4272634,38.8167843 C37.7824158,39.0833084 38.0080158,39.4186845 38.1621386,39.8606702 C39.1248475,39.7496185 39.7502733,39.9295223 40.0652198,40.3959394 C40.176903,40.6846738 40.176903,40.9933975 40.0652198,41.3309947 C40.847002,41.7974118 41.3384079,42.1749875 41.5394376,42.5059216 C41.8298139,42.927918 41.8298139,43.3054938 41.5148673,43.5942282 C41.4500911,43.7985633 41.4500911,43.9273832 41.5148673,44.0162246 L42.2542099,44.9535009 C42.658503,45.4376863 42.5937267,45.8841141 42.1000871,46.2616898 C41.9861703,46.5282139 41.9861703,46.728107 42.1246574,46.86359 C42.5937267,47.8408449 42.7701861,48.6670695 42.6808396,49.3267166 C42.5043802,49.7531551 42.2117703,49.7775865 41.7650376,49.4422103 L41.7449347,47.1745348 C41.517101,46.663697 40.9162455,46.861369 40.9363485,47.3988592 L40.9363485,49.9974688 C40.9564515,50.3550553 41.0703683,50.7526203 41.1373782,51.0413547 C41.2267248,51.2412478 41.1842851,53.7976578 41.1842851,53.7976578 C41.1373782,54.2662959 41.045798,54.6216613 40.9140119,54.865975 L40.3086891,55.6211266 C40.2193426,55.6411159 40.1545663,55.6211266 40.1322297,55.5100749 C40.3734653,53.8665098 40.3935683,52.4206168 40.1947723,51.1746168 L39.1248475,48.7714581 C39.015398,47.8164135 38.9662574,47.0212834 39.055604,46.3505312 C39.281204,45.8841141 39.5045703,45.5709483 39.7056,45.3954866 C39.8865267,44.8824278 39.7056,44.6825348 39.1918574,44.7758182 C38.5217584,45.2844349 38.2313822,46.1262068 38.2983921,47.3055758 C38.4994218,48.1939893 38.5686653,48.7958895 38.4994218,49.0646346 C38.3676356,49.1734652 38.2782891,49.3267166 38.2537188,49.5310517 C38.119699,50.2417825 38.1643723,50.9103137 38.2336158,51.5988342 L38.099596,53.8465205 C37.9410059,54.1752335 37.7399762,54.3995579 37.5188436,54.5305989 C37.5389465,51.8675793 37.4496,50.2440036 37.2709069,49.4444314 C37.0698772,48.6670695 36.8911842,48.042959 37.2954772,47.5321212 C37.4518337,46.9768627 37.3602535,46.5082246 37.3602535,46.5082246 L37.1167842,45.5753904 C37.0028673,44.957943 37.0520079,44.2871907 37.2709069,43.5320392 C37.3178139,42.663615 37.0006337,42.0639358 36.3327683,41.6863601 L36.3327683,38.994467 L36.328301,38.994467 Z M64.1173069,30.0348164 C64.1619802,30.3924029 64.1820832,30.7255579 64.1820832,31.060934 L65.1001188,32.4135437 C65.0755485,32.2602923 65.1001188,31.7028128 64.720396,31.125344 C64.541703,30.7699786 64.3429069,30.3924029 64.1173069,30.0348164 Z M64.0726337,33.1931266 C64.0279604,33.5707023 63.9631842,33.9504991 63.871604,34.3036435 L65.6808713,36.171533 L65.6116277,35.3053298 C65.1224554,34.6590089 64.6779564,34.0393405 64.0726337,33.1931266 Z M63.4695446,35.8361569 L63.154598,36.7467807 C64.1173069,37.684057 65.1425584,38.5480392 66.2415208,39.3720428 L66.1722772,38.7701426 C64.9214257,37.615205 64.0927366,36.6401711 63.4695446,35.8361569 Z M62.683295,37.9039394 L62.2834693,38.8167843 C63.201505,39.8406809 64.6980594,41.0378182 66.750796,42.3748806 C66.7306931,42.2593868 66.750796,42.0417255 66.7083564,41.9284528 C64.966099,40.371508 63.6236673,39.0411087 62.683295,37.9039394 Z M61.8367366,39.7496185 L61.0973941,41.2399323 C62.7547723,43.2410838 64.9035564,45.2844349 67.5392792,47.3766488 C67.0009663,46.3749626 66.7306931,45.419918 66.6011406,44.4848627 C65.636198,43.9073939 64.0726337,42.3060285 61.8367366,39.7496185 Z M56.7596198,27.5250481 C57.8987881,25.8570517 59.5360634,24.633262 61.3453307,24.7443137 C61.4145743,24.4777897 61.2760871,24.235697 60.9209347,23.9891622 C60.5166416,23.8092585 60.2709386,23.8781105 59.6924198,24.1668449 C58.7989545,24.1890553 58.1936317,24.0091515 57.8585822,23.6115865 C57.8116752,23.5205241 57.8585822,23.453893 57.9680317,23.4316827 L59.4869228,22.8542139 L59.4869228,22.6321105 C58.5711208,22.8742032 57.6084119,22.8986346 56.6032634,22.7453832 C56.0895208,22.6565419 55.7768079,22.2789661 55.6874614,21.5882246 C55.5757782,21.3461319 55.7768079,21.3217005 55.9331644,21.4549626 C56.1766337,21.8325383 56.5585901,22.0324314 57.0723327,22.0324314 C58.437101,22.010221 59.2434535,21.941369 59.4869228,21.810328 C60.0252356,21.6326453 60.3357149,21.3194795 60.4049584,20.8530624 C60.4496317,20.7175793 60.3848554,20.69759 60.2240317,20.7420107 C59.5338297,21.0307451 59.3305663,20.9419037 58.8838337,20.9196934 C58.6135604,20.9196934 58.635897,20.764221 58.9486099,20.6065276 C60.1570218,19.9402175 60.693101,19.1162139 60.5568475,18.1611693 C60.6260911,17.9834866 60.713204,17.9146346 60.8025505,17.9834866 C61.5865663,19.4049483 61.4726495,21.0529554 60.5814178,22.2500927 C60.5166416,22.3233868 60.494305,22.3900178 60.494305,22.4788592 L60.6305584,22.6587629 C62.8642218,25.3706453 64.3630099,28.5267344 65.390495,32.0803886 C66.1052673,35.3941711 66.8892832,44.0184456 68.2071446,46.3749626 C68.6985505,47.7542246 69.3016396,48.9757932 70.0164119,50.1107415 C68.787897,50.2639929 67.447699,49.9108485 66.6391129,49.6221141 L67.5772515,56.8893369 L62.4599287,55.3346132 L61.1599366,51.7987273 C61.0906931,51.6232656 60.9812436,51.5344242 60.7601109,51.6876756 C60.3111446,51.9541996 58.9731802,51.7765169 58.8816,51.7765169 C58.5219802,51.7076649 58.4125307,51.7298752 58.3633901,51.912 C58.3209505,52.2251658 58.3008475,52.8892549 58.3432871,53.8887201 C58.3924277,54.2463066 58.6336634,54.5305989 59.0379564,54.7593654 L59.7326257,55.0236684 C60.0676752,55.1125098 60.3133782,55.2901925 60.447398,55.5367273 C60.5568475,55.8898717 60.8025505,56.2252478 61.1845069,56.5117611 C61.4123406,56.5783922 61.5642297,56.6006025 61.5217901,57.0026096 C61.4726495,57.3113333 61.2314139,57.4912371 61.0080475,57.4668057 C60.6283248,57.4246061 60.3357149,57.2669127 60.1145822,56.9781783 C59.7102891,56.4229198 59.1965465,56.0009234 58.5711208,55.7121889 C57.945695,55.3790339 56.9874535,55.3590446 55.8192475,55.7121889 C54.4589465,56.2008164 53.3197782,56.8249269 52.6027723,57.5156684 C52.4709861,57.6000677 52.3816396,57.5800784 52.312396,57.4912371 L52.6474455,55.77882 C52.7367921,55.5145169 52.8931485,55.3124029 53.1165149,55.2479929 L56.8735366,54.2485276 L56.9383129,51.5566346 C56.1341941,51.0013761 55.5534416,50.2906453 55.1737188,49.4466524 C54.7917624,47.9807701 53.049505,47.2456078 53.049505,47.2456078 C52.3794059,46.8480428 52.0421228,46.5548663 51.5976238,46.534877 L51.5306139,46.470467 C51.1933307,46.4460357 50.5924752,46.4460357 49.7436832,46.4926774 C49.3840634,46.5570873 49.1137901,46.8014011 48.8948911,47.2278396 L48.6469545,47.914139 C48.5576079,48.2495152 48.4660277,48.3361355 48.1555485,48.6270909 C47.7959287,48.7603529 47.4608792,49.026877 47.1928396,49.3844635 L47.1034931,49.5577041 L47.1034931,49.6931872 C46.5897505,51.3167629 42.1872,58.0975793 34.9434297,60.898303 C29.307897,58.8282995 23.9672079,52.6493832 23.0290693,49.7864706 L23.0290693,49.6731979 C22.9397228,49.6087879 22.8704792,49.4932941 22.8302733,49.4088948 C22.56,49.0202139 22.2472871,48.7736791 21.8653307,48.6426381 C21.5503842,48.3539037 21.4610376,48.2650624 21.3716911,47.9319073 L21.1282218,47.2211765 C20.9249584,46.794738 20.6345822,46.5748556 20.2749624,46.5060036 C19.4507406,46.4638039 18.8454178,46.4415936 18.4902653,46.4638039 L18.4433584,46.5282139 C17.9943921,46.5748556 17.6638099,46.861369 16.9691406,47.2389447 C16.9691406,47.2389447 15.2268832,47.974107 14.8471604,49.4644207 C14.4674376,50.3084135 13.8866851,50.994713 13.1026693,51.5499715 L13.1674455,54.2640749 L16.9021307,55.2413298 C17.1232634,55.3301711 17.3019564,55.5078538 17.3935366,55.7965882 L17.7040158,57.5090053 C17.6414733,57.5934046 17.5521267,57.5934046 17.4136396,57.5090053 C16.7234376,56.8182638 15.559699,56.2185847 14.1949307,55.7299572 C13.0356594,55.3523815 12.0729505,55.3945811 11.4676277,55.7055258 C10.8176317,55.9942602 10.3061228,56.4162567 9.90406337,56.9715152 C9.7008,57.2802389 9.39032079,57.4379323 9.01059802,57.4601426 C8.78946535,57.5067843 8.54152871,57.3291016 8.49685545,57.0181569 C8.45218218,56.5961604 8.63087525,56.5961604 8.85200792,56.5073191 C9.21162772,56.238574 9.45956436,55.9076399 9.5913505,55.5322852 C9.7008,55.3057398 9.9509703,55.1080677 10.2860198,55.0192264 L10.9806891,54.7549234 C11.3805149,54.5528093 11.6306851,54.2640749 11.6954614,53.9109305 C11.7200317,52.8870339 11.7200317,52.240713 11.6507881,51.9275472 C11.6306851,51.7276542 11.5167683,51.7032228 11.1370455,51.7742959 C11.0700356,51.7965062 9.70303366,51.9741889 9.25853465,51.7054439 C9.05527129,51.5521925 8.92348515,51.6410339 8.85424158,51.8209376 L7.55871683,55.3323922 L2.4391604,56.8871159 L3.37729901,49.6376613 C2.57094653,49.9086275 1.25308515,50.2639929 0,50.1085205 C0.719239604,49.0002246 1.34466535,47.7520036 1.83830495,46.3971729 C3.15616634,44.040656 3.93571485,35.4141604 4.6281505,32.0803886 C5.6824396,28.5245134 7.18122772,25.3906346 9.41489109,22.6587629 L9.52210693,22.5010695 C9.55114455,22.4122282 9.50200396,22.3233868 9.43499406,22.2567558 C8.54152871,21.0596185 8.45218218,19.4116114 9.20939406,18.0123601 C9.30097426,17.9212977 9.39032079,17.9901497 9.47966733,18.1900428 C9.32107723,19.1450873 9.8593901,19.9468806 11.087905,20.6131907 C11.3782812,20.7686631 11.4028515,20.9263565 11.1348119,20.9263565 C10.6880792,20.9685561 10.4848158,21.0573975 9.79014653,20.7664421 C9.63825743,20.6998111 9.56901386,20.7442317 9.61145347,20.8797148 C9.7008,21.3217005 9.9934099,21.6548556 10.5294891,21.8347594 C10.7774257,21.94359 11.5793109,22.0346524 12.9463129,22.0590838 C13.4578218,22.0590838 13.8353109,21.8547487 14.0854812,21.4571836 C14.2418376,21.3217005 14.445101,21.3661212 14.3311842,21.612656 C14.2418376,22.3011765 13.9268911,22.6765312 13.4153822,22.7476043 C12.408,22.925287 11.4475248,22.8786453 10.5294891,22.6343316 L10.5294891,22.8564349 L12.0729505,23.4339037 C12.1868673,23.4827665 12.2069703,23.5449554 12.1868673,23.6337968 C11.8272475,24.0113725 11.2241584,24.2179287 10.350796,24.1912763 C9.74994059,23.8803316 9.50200396,23.8114795 9.09994455,23.9913832 C8.72022178,24.2579073 8.61077228,24.5466417 8.72022178,24.8353761 C10.4624792,24.7243244 12.0483802,25.8592727 13.1875485,27.4784064 C14.1502574,28.238 14.5768871,30.5478752 14.2641743,32.4157647 C14.0363406,36.5735401 10.8198653,41.3976257 4.58347723,46.9102317 L3.37506535,55.4878645 L4.18365149,55.1791408 L5.03244356,49.0646346 L5.76731881,48.7714581 L4.85151683,54.9992371 L6.93105743,54.3795686 L9.87949307,46.7747487 L10.5093861,45.9507451 L11.2889347,45.5331907 C11.6485545,45.419918 11.7825743,45.6642317 11.6485545,45.9329768 C11.1102416,46.4415936 10.7796594,46.9102317 10.6210693,47.3077968 L9.74994059,49.553262 C9.52210693,50.0863102 9.57124752,50.5127487 9.83928713,50.8192513 C10.0403168,51.1990481 11.3336079,51.1768378 12.4973465,50.734852 C13.9067881,49.7997968 14.0363406,49.155697 14.3959604,48.2206417 C14.7332436,47.3766488 15.2447525,46.794738 15.9394218,46.4882353 C17.1925069,45.422139 17.0138139,44.4026845 17.0138139,44.1983494 L17.1478337,41.2421533 C17.1925069,40.7979465 17.6124356,39.4853155 19.2273743,36.4647094 C20.8802851,31.9982103 21.3292515,28.3934724 20.522899,25.6616007 C20.3017663,23.6826595 19.3837307,22.6121212 17.7531564,22.4388806 L15.5373624,22.5677005 C15.1174337,22.3700285 14.8270574,22.1012834 14.6662337,21.745918 C14.465204,21.4127629 14.5344475,21.2772799 14.8672634,21.3461319 C15.0705267,21.6548556 15.360903,21.8347594 15.7406257,21.8547487 L17.2148436,21.745918 C17.6638099,21.6992763 18.0234297,21.5238146 18.2244594,21.1684492 C18.7359683,20.4577184 18.465695,19.4560321 18.5349386,18.3455152 C18.6041822,17.7880357 19.0933545,17.679205 19.3189545,18.1878217 C19.4552079,18.5009875 19.4328713,18.7652906 19.2296079,18.9651836 C19.202804,20.1245633 19.162598,20.8997041 18.8722218,21.3883316 C18.6019485,21.7237077 18.6667248,21.9236007 19.0710178,21.9680214 C19.8974733,22.4766381 20.5698059,23.2095793 21.0388752,24.1890553 C22.8280396,28.7910374 21.9278733,33.5040713 18.5304713,40.1960463 C18.1306455,41.2843529 17.9720554,42.596984 18.041299,44.107287 L18.061402,45.0201319 L20.6613861,45.0201319 L21.7112079,41.2843529 C21.8005545,41.0378182 21.9814812,40.8845668 22.2696238,40.8134938 L23.0290693,40.6824528 L23.0290693,26.8987166 L31.1216317,26.8987166 C31.0322851,26.8343066 31.391905,25.943672 31.6130376,25.8348414 C31.8386376,25.7015793 34.0499644,25.2995722 34.0499644,25.2995722 L34.0499644,24.0091515 C34.0499644,23.8381319 33.5116515,23.5005348 33.2905188,23.2828734 C33.0671525,23.054107 32.8214495,22.5677005 32.5958495,22.1901248 C32.3501465,21.7881176 32.0821069,21.2572906 31.9704238,21.0995971 C31.8609743,20.9463458 31.2534178,19.8558182 31.0724911,19.5693048 C30.8960317,19.256139 30.8513584,18.7008806 30.7620119,18.2788841 C30.6726653,17.879098 30.0025663,16.8130018 29.6898535,16.3221533 C29.2431208,16.7241604 29.0443248,16.7885704 28.3742257,17.0773048 C27.7443327,17.2349982 27.1434772,17.3438289 26.5158178,17.3238396 C25.3989861,17.2127879 24.6373069,16.7685811 24.2575842,16.0112086 C24.0118812,15.320467 24.0989941,14.5897469 24.5032871,13.7879537 C24.5680634,13.6968913 24.617204,13.6968913 24.6819802,13.7879537 L26.136095,15.7646738 C26.7860911,16.4109947 27.4070495,16.6575294 28.193299,16.5686881 C28.9281743,16.3887843 29.0845307,16.2555223 29.4888238,15.9667879 L29.2632238,15.4093084 C29.0644277,15.7224742 28.8187248,15.9201462 28.5037782,16.0311979 C28.213402,16.1666809 27.9230257,16.1888913 27.6549861,16.0978289 C27.2953663,15.9867772 27.0273267,15.8535152 26.9156436,15.6980428 C27.0742337,14.7407772 28.3719921,14.0544777 28.5484515,13.9656364 C28.5484515,13.9656364 28.6623683,13.8967843 28.7517149,13.876795 L28.637798,13.4547986 C27.3199366,13.4103779 22.6270099,13.5436399 20.3442059,9.47692692 C19.2720475,7.56461676 18.3763485,5.32137255 17.1232634,4.49959002 C16.2074614,4.0065205 15.4949228,4.05316221 14.5969901,4.564 C15.0906297,4.0065205 15.5150257,3.65337611 16.0533386,3.52011408 C16.4978376,3.45126203 17.1031604,3.52011408 17.6124356,3.52011408 C19.0017743,3.83327986 20.8110416,5.6722959 20.7239287,5.60788592 C20.9227248,5.93659893 21.1684277,7.07376827 21.3694574,8.27312656 C21.5079446,8.78618538 22.1758099,9.38364349 22.4460832,9.80563993 C22.307596,9.22595009 22.2673901,8.67291266 22.3567366,8.20649554 C22.8682455,8.60850267 23.1831921,8.67291266 23.920301,8.96164706 C24.8584396,9.63017825 25.3252752,10.7162638 26.0445149,11.6957398 C26.5828277,12.2954189 27.6080792,12.695205 28.459105,12.7840463 L28.439002,12.6707736 L28.392095,12.4708806 C27.9230257,12.4286809 27.2953663,12.3398396 26.8039604,11.9200642 C25.7965782,10.6296435 25.061703,9.29480214 24.2553505,8.58629234 L23.7862812,8.40638859 C23.1563881,8.09322282 22.5979723,7.7645098 22.128903,7.38471301 C22.128903,7.38471301 21.9770139,8.40638859 21.8385267,8.40638859 C21.7290772,7.32030303 21.5280475,6.36525847 21.2801109,5.51904456 C21.1706614,5.31915152 20.9696317,5.18366845 20.7462653,4.93935472 C21.7514139,5.00376471 22.2204832,4.8527344 22.3344,4.51735829 C22.4483168,3.85104813 22.6493465,3.45126203 23.0692752,3.22693761 C23.4780356,3.52011408 24.2352475,4.22862389 24.5256238,4.91714439 C24.6574099,5.34136185 24.7065505,5.78556863 24.6574099,6.31639572 C24.7065505,6.22755437 24.7936634,6.20756506 24.8383366,6.16314439 C25.0393663,5.74336898 25.2180594,5.58567558 25.5084356,5.23253119 C25.5553426,5.07483779 25.5553426,4.96600713 25.6893624,4.76611408 C25.8233822,5.00598574 25.9127287,5.14368984 26.0266455,5.27473084 C26.8977743,6.14537611 26.7615208,7.63124777 26.7369505,7.63124777 C26.8508673,8.92166845 27.0742337,9.92335472 27.4539564,10.6118752 C27.8336792,11.1671337 27.9900356,11.2581961 28.3474218,11.3914581 C28.459105,9.679041 29.4865901,8.27978966 29.9556594,8.16873797 C30.0472396,8.14874866 30.1589228,8.0332549 29.9556594,7.99105526 C29.6005069,7.85557219 29.3056634,7.56905882 29.2609901,6.99159002 C29.2408871,6.58958289 29.082297,4.5440107 29.1515406,4.32412834 C29.2163168,4.09980392 29.5759366,4.27970766 29.6005069,4.39298039 C29.6429465,4.50403209 29.7121901,5.9676934 29.7769663,6.58958289 C29.8663129,7.19148307 30.4269624,7.59126916 30.6302257,7.68011052 C30.8290218,7.76895187 31.9212832,7.70232086 32.2138931,7.70232086 C32.479699,7.70232086 32.2786693,7.63346881 32.4394931,7.56683779 C32.6181861,7.47799643 32.7276356,7.47799643 32.8192158,7.54684848 C32.9286653,7.59126916 32.8638891,7.87778253 32.7745426,8.00882353 C32.6606257,8.16651693 32.2608,8.36640998 31.9212832,8.433041 C31.590701,8.49967201 31.2757545,8.36640998 31.0300515,8.36640998 C30.4716356,8.41083066 30.2214653,8.67957576 30.0226693,8.87946881 C29.5536,9.36809626 29.307897,9.96333333 29.0621941,11.0116613 C28.8365941,12.0555472 29.1515406,13.1438538 29.3503366,13.6591337 C29.5513663,14.1855187 29.9556594,15.4581711 30.3108119,16.168902 C30.6704317,16.8596435 31.159604,17.4548806 31.3874376,17.9013084 C31.6286733,18.3677255 31.6532436,18.3899358 31.7671604,19.1028877 C31.8989465,19.8380499 33.1073584,22.0146631 33.6680079,22.8142353 C34.2264238,23.6138075 34.7848396,23.7026488 35.4973782,23.7914902 C36.2166178,23.9025419 36.527097,23.5893761 36.6164436,23.5449554 C36.7057901,23.4849875 35.6559683,21.5660143 35.4549386,21.3239216 C35.2784792,21.0796078 35.1198891,21.0573975 35.1198891,21.0573975 C35.1198891,21.0573975 35.0327762,20.8330731 35.1198891,20.7664421 C35.1891327,20.6798217 35.8190257,20.8330731 36.1473743,21.0085348 C36.4667881,21.1662282 37.9856792,24.8531444 38.0750257,24.9686381 C38.1621386,25.1019002 39.3459802,25.4084029 39.4152238,25.3884135 C39.5045703,25.3662032 38.3877386,22.4744171 38.4078416,22.3678075 C38.4324119,22.2278824 38.9014812,22.3678075 38.9662574,22.3678075 C39.035501,22.3678075 39.9937426,25.4572656 39.9937426,25.4572656 L40.4427089,25.5883066 C40.2640158,24.9708592 39.7726099,21.5637932 39.725703,21.5238146 C36.3975446,19.3005597 35.2092356,17.6569947 34.4095842,16.5686881 C33.5607921,15.4115294 33.402202,14.2121711 33.382099,12.9883815 C33.3575287,11.7401604 33.7819248,11.3226061 33.9829545,11.0760713 L34.0968713,10.9672406 C34.6530535,10.3653405 35.5018455,9.92113369 36.4399842,9.85450267 C36.4399842,9.74345098 36.7102574,9.76566132 36.9090535,9.76566132 C37.1368871,9.76566132 37.2016634,9.72346168 37.2262337,9.54355793 C37.2463366,9.38586453 37.0676436,9.27703387 36.8465109,9.1415508 C36.6186772,8.98829947 36.4377505,9.1415508 36.0379248,9.22817112 C35.638099,9.34588592 35.0997861,9.09713012 34.9434297,9.02827807 C34.8071762,8.96386809 34.8295129,8.89723708 35.0082059,8.85059537 C35.4973782,8.73954367 35.856998,8.71733333 36.0848317,8.3219893 C35.186899,8.4530303 33.7796911,8.47079857 33.5987644,8.36418895 C33.4669782,8.27534759 33.1788356,7.96440285 33.0872554,7.80670945 C32.9733386,7.67566845 33.129695,7.60903743 33.2413782,7.60903743 C33.3508277,7.60903743 33.4870812,7.89777184 33.7551208,7.96440285 C34.0008238,8.02881283 35.7430812,7.91998217 36.082598,7.8755615 C36.4355168,7.83114082 36.6387802,7.49798574 36.752697,7.38471301 C36.8621465,7.27366132 36.752697,7.18481996 36.6142099,7.16260963 C36.4623208,7.13817825 35.9642139,7.27366132 35.7654178,7.27366132 C35.5867248,7.27366132 35.5666218,7.27366132 35.5666218,7.13817825 C35.5666218,6.98492692 36.2836277,6.71840285 36.5494337,6.5185098 C36.7951366,6.31417469 36.9045861,5.84775758 36.9045861,5.84775758 C36.9045861,5.84775758 36.9738297,5.67007487 37.0855129,5.69894831 C37.1994297,5.71893761 37.2642059,6.00767201 37.4004594,6.38524777 C37.5344792,6.78503387 37.1994297,7.62902674 36.8643802,8.02881283 C36.7951366,8.07545455 36.6834535,8.1443066 36.527097,8.1842852 C36.6655842,8.33975758 37.7154059,9.63017825 38.2492515,10.4519608 C38.4748515,10.7828948 38.7183208,11.2071123 38.9640238,11.6735294 L39.1873901,11.8978538 C39.5224396,12.4286809 40.1031921,12.8106988 40.9765545,12.764057 C42.2050693,12.8751087 43.1901149,12.3642709 43.7485307,11.7401604 C44.4677703,10.7851159 44.9569426,9.6723779 45.8727446,9.00828877 C46.6120871,8.74176471 46.9270337,8.65292335 47.4363089,8.27534759 C47.5256554,8.71955437 47.4832158,9.29702317 47.3715327,9.85450267 C47.6373386,9.43250624 48.2873347,8.8528164 48.4235881,8.34197861 C48.6246178,7.14039929 48.8658535,5.98768271 49.0735842,5.65008556 C48.9842376,5.71893761 50.8136079,3.87325847 52.1783762,3.56453476 C52.6921188,3.56453476 53.2974416,3.52011408 53.7419406,3.5867451 C54.2802535,3.72000713 54.7068832,4.05316221 55.1982891,4.60842068 C54.3003564,4.09758289 53.5855842,4.05316221 52.6720158,4.564 C51.443501,5.36135116 50.5254653,7.60903743 49.4555406,9.51912656 C47.1481663,13.6324813 42.2966495,13.5436399 40.8246653,13.4770089 L39.8150495,13.4525775 L39.8842931,13.6569127 C39.9937426,13.6080499 40.3332594,13.5414189 41.1128079,13.876795 C41.4009505,14.0122781 42.5646891,14.6541569 42.7456158,15.5892121 C42.6093624,15.7624528 42.3413228,15.8979358 42.0062733,16.0089875 C41.7404673,16.0978289 41.311604,16.0556292 41.0011248,15.9201462 C40.7107485,15.8313048 40.4427089,15.6536221 40.2171089,15.3426774 L40.3310257,15.9645668 C40.7107485,16.2732906 40.8626376,16.4531943 41.6265505,16.6064456 C42.385996,16.695287 43.0114218,16.4531943 43.6614178,15.8113155 L45.1155327,13.8279323 C45.1803089,13.743533 45.2495525,13.743533 45.2919921,13.8279323 C45.7007525,14.6275045 45.790099,15.3626667 45.5399287,16.0534082 C45.1602059,16.8085597 44.4007604,17.2505455 43.281695,17.3860285 C42.6562693,17.3860285 42.0732832,17.2971872 41.4232871,17.1217255 C40.9117782,16.89518 40.5968317,16.7663601 40.4427089,16.566467 C40.5990653,17.5637112 40.8023287,18.6120392 40.9787881,19.3894011 C41.3830812,21.2106488 42.7679525,22.8764242 42.857299,23.3028627 C42.9488792,23.7204171 40.8447683,23.0363387 40.7129822,23.1029697 C40.574495,23.1651586 41.2244911,26.3234688 41.1150416,26.3456791 C40.9787881,26.3656684 37.9164356,25.6349483 37.6059564,25.4106239 C37.2686733,25.2107308 37.0676436,24.2556863 36.9336238,24.1446346 C36.799604,24.0580143 36.6879208,24.237918 36.5092277,24.368959 C36.328301,24.5222103 36.5293307,25.3706453 36.7080238,25.5283387 C36.8889505,25.7038004 37.6059564,25.8370624 37.7824158,25.945893 C37.9611089,26.0813761 38.0750257,26.3923209 38.1867089,26.4567308 L38.7227881,26.8765062 L38.4324119,26.8987166 L47.1057267,26.8987166 L47.1057267,40.6824528 L47.7557228,40.7935045 C48.0483327,40.8845668 48.2247921,41.0355971 48.3141386,41.2621426 L49.3661941,45.0179109 L51.9795802,44.9934795 L51.9996832,44.105066 C52.0689267,42.5947629 51.888,41.2821319 51.4859406,40.171615 C48.0885386,33.4796399 47.2174099,28.7910374 48.9864713,24.1668449 C49.4778772,23.18959 50.1256396,22.4544278 50.9766653,21.9680214 C51.3563881,21.9013904 51.4457347,21.6992763 51.1531248,21.3661212 C50.8873188,20.8997041 50.8180752,20.1001319 50.7979723,18.9651836 C50.5969426,18.7430802 50.5723723,18.4765561 50.7086257,18.1678324 C50.9297584,17.6592157 51.423398,17.7902567 51.5127446,18.3477362 C51.5574178,19.4582531 51.2871446,20.4577184 51.8031208,21.1706702 C52.0287208,21.5016043 52.3615366,21.7014973 52.8328396,21.748139 L54.2847208,21.8369804 C54.6644436,21.8147701 54.9548198,21.6570766 55.1558495,21.3483529 C55.4931327,21.2595116 55.5601426,21.3905526 55.3568792,21.748139 C55.2250931,22.0790731 54.9347168,22.3722496 54.4857505,22.5499323 L52.2677228,22.4122282 C50.6594851,22.6099002 49.7191129,23.6804385 49.4957465,25.6349483 C48.6916277,28.3912513 49.1361267,31.9959893 50.793505,36.4624884 C52.4218455,39.4830945 52.8507089,40.7735152 52.8730455,41.2399323 L53.0048317,44.176139 C53.0316356,44.4004635 52.8283723,45.419918 54.0814574,46.4860143 C54.7716594,46.7747487 55.285402,47.3522175 55.6204515,48.1962103 C56.0001743,49.155697 56.1140911,49.7997968 57.548103,50.734852 C58.6872713,51.1768378 59.982796,51.1768378 60.1815921,50.799262 C60.474202,50.5105276 60.4965386,50.0863102 60.2955089,49.551041 L59.4221465,47.3055758 C59.2456871,46.8858004 58.908404,46.4171622 58.3678574,45.9085455 C58.2584079,45.6620107 58.3678574,45.417697 58.7274772,45.5309697 L59.5114931,45.9485241 L60.1614891,46.7725276 L63.0898218,54.3773476 L65.1671287,54.997016 L64.2736634,48.7692371 L65.0130059,49.0624135 L65.861798,55.1769198 L66.6413465,55.4856435 L65.4351683,46.9080107 C59.1965465,41.3954046 55.9800713,36.5713191 55.7544713,32.4135437 C55.4417584,30.5922959 55.8438178,28.3490517 56.7596198,27.5250481 Z M37.8270891,19.120656 C39.6162535,20.7442317 41.3138376,21.812549 41.0033584,21.4993832 C40.9564515,21.4349733 40.5543921,20.4110766 40.4650455,20.2333939 C40.4248396,20.1245633 38.9908277,19.0118253 38.1420356,18.2966524 L37.8270891,19.120656 Z M38.4056079,17.5215116 C39.234297,18.0323494 40.3935683,18.8541319 40.5320554,18.8541319 C40.5968317,18.8319216 40.5320554,18.7430802 40.4829149,18.6342496 C40.4628119,18.5431872 39.3035406,17.6303422 38.564198,17.0528734 L38.4056079,17.5215116 Z M38.7451248,16.3443636 C39.3459802,16.7419287 40.2439129,17.4104599 40.3086891,17.4326702 C40.4226059,17.4770909 40.2841188,17.2327772 40.2640158,17.1217255 C40.2640158,17.0328841 39.3928871,16.2310909 38.8746772,15.7424635 L38.7451248,16.3443636 Z M38.9908277,14.8540499 L40.0853228,15.7868841 C40.0853228,15.7868841 40.0853228,15.6092014 39.9959762,15.384877 C39.9267327,15.2071943 39.3705505,14.5186738 39.035501,14.141098 L38.9908277,14.8540499 Z M38.9461545,12.9861604 C38.9908277,12.8506774 39.6363564,13.6946702 39.6363564,13.6946702 C39.6363564,13.6946702 39.6832634,13.7168806 39.5447762,13.4081569 C39.3683168,13.0083708 39.0801743,12.561943 38.7451248,12.1421676 C38.8344713,12.4286809 38.8992475,12.7218574 38.9461545,12.9861604 Z M35.7274455,24.3223173 C35.2784792,24.4578004 34.7647366,24.2579073 34.7647366,24.237918 C34.7647366,24.237918 34.7200634,25.1218895 34.7401663,25.2573725 C34.7401663,25.3928556 35.2985822,25.5039073 35.3901624,25.5705383 C35.4996119,25.6349483 35.7497822,25.4128449 35.7497822,25.4128449 C35.7497822,25.4128449 35.7922218,24.7443137 35.7274455,24.3223173 Z M32.8862257,26.9009376 L37.7377426,26.9009376 C37.5813861,26.8143173 37.0229703,26.3034795 36.7571644,26.3656684 C36.6655842,26.3945419 37.2463366,26.9009376 37.2463366,26.9009376 C37.2463366,26.9009376 36.4176475,26.9009376 36.308198,26.858738 C36.1987485,26.8343066 35.3008158,26.2812692 35.1466931,26.2124171 C35.0082059,26.1457861 33.3106218,26.7898859 32.8862257,26.9009376 Z M31.6331406,26.9009376 L32.7767762,26.9009376 C32.712,26.8143173 32.5735129,26.5433512 32.5735129,26.4833832 C32.5712792,26.4367415 31.836404,26.7898859 31.6331406,26.9009376 Z M47.1034931,42.2593868 L47.1034931,47.9963173 C47.4631129,47.6409519 47.7289188,47.2211765 47.9567525,46.7503173 C48.2672317,46.1284278 48.2672317,45.1533939 47.8875089,43.9962353 C47.6395723,43.3521355 47.396103,42.7768877 47.1034931,42.2593868 Z M23.0290693,48.0873797 L23.0290693,42.1061355 C22.6917861,42.663615 22.4014099,43.3077148 22.1579406,43.9984563 C21.7514139,45.1756043 21.7782178,46.1306488 22.088697,46.7525383 C22.3098297,47.2878075 22.6270099,47.7075829 23.0290693,48.0873797 Z M34.1839842,37.9927807 C33.0001426,37.7284777 32.1267802,38.1504742 31.5214574,39.2632121 C29.8238733,39.3276221 28.9281743,40.1516257 28.8388277,41.7263387 C28.0793822,41.9262317 27.6750891,42.4170802 27.6103129,43.2610731 C26.8061941,43.3277041 26.3371248,43.9273832 26.176301,45.0601105 C24.8807762,45.0601105 24.7713267,47.0412727 26.2902178,47.2611551 C26.6252673,47.5743209 27.0049901,48.2872727 27.2730297,49.0868449 C27.6326495,49.8175651 28.0525782,50.5083066 28.5238812,50.7726096 C28.4814416,51.7054439 28.5931248,52.3517647 28.7718178,52.8403922 L28.9259406,54.865975 C29.1515406,55.3745918 29.5089267,55.9320713 30.0695762,55.9520606 C30.9608079,55.8876506 31.119398,55.2613191 30.8290218,54.0641818 L30.920602,51.6632442 C31.0724911,51.7965062 31.1908752,52.0630303 31.2511842,52.4206168 C31.3896713,53.3756613 31.3896713,54.797123 31.5192238,56.6672335 C31.8587406,57.5312157 32.0776396,57.422385 32.5690455,57.553426 C33.1520317,57.5090053 33.4669782,57.2180499 33.5965307,56.5073191 C33.5965307,55.9298503 33.5071842,55.4390018 33.3508277,55.0170053 C33.196705,54.0619608 33.1520317,52.9492228 33.2614812,51.7476435 C33.2860515,50.8814403 33.3307248,50.3061925 33.5317545,49.9930267 C33.9114772,49.5710303 34.0008238,49.2378752 34.1125069,48.30282 C34.2018535,48.0807166 34.8272792,48.1251373 35.0551129,47.6831515 C35.186899,46.99241 35.1645624,46.0351444 35.0082059,44.698082 C34.762503,44.0828556 34.6977267,43.5009447 34.8071762,42.9479073 C34.8518495,42.5236898 35.0774495,42.3237968 35.5264158,42.3460071 C35.9061386,42.3237968 36.1719446,42.5725526 36.2858614,43.0789483 C36.3059644,43.5897861 36.2858614,44.0384349 36.1965149,44.4804207 C36.1049347,44.9912585 36.1719446,45.881893 36.5516673,46.6592549 C36.5963406,46.8391586 36.5069941,47.0812513 36.5762376,47.258934 C36.4667881,47.6365098 36.2389545,47.8386239 36.1719446,48.6381961 C36.1719446,49.0846239 36.4154139,49.8397754 36.4154139,49.8397754 C36.6856871,50.4172442 36.8197069,51.8409269 36.8197069,54.1463601 C36.6633505,54.3928948 36.5941069,54.7282709 36.8442772,55.0814153 C37.4250297,55.3945811 37.6930693,55.3523815 38.2492515,55.0170053 C38.4949545,54.7282709 38.6736475,54.4173262 38.8076673,54.0619608 C38.8970139,52.5716471 38.8970139,51.4389198 38.7629941,50.6593369 C38.783097,50.4816542 38.8523406,50.3928128 38.9885941,50.3928128 C39.2544,50.8125882 39.4129901,51.2612371 39.5224396,51.7276542 C39.5023366,54.1285918 39.2544,55.5078538 39.3236436,56.0386809 C39.4330931,56.371836 39.7480396,56.5495187 40.4226059,56.5073191 C40.9117782,56.2852157 41.762804,54.9525954 41.762804,54.9525954 C41.941497,53.9509091 41.9616,52.7959715 41.8074772,51.5055508 C41.7829069,51.2368057 41.7829069,51.0857754 41.8521505,50.7703886 C41.9169267,50.5505062 41.941497,50.5060856 42.0978535,50.4816542 C42.7478495,50.6349055 43.1923485,50.3061925 43.4603881,49.4821889 C43.5050614,49.0846239 43.5050614,48.504934 43.4157149,47.7942032 C43.3710416,47.3722068 43.2615921,47.0168414 43.0114218,46.7458752 C43.6390812,45.7042103 43.4804911,44.698082 42.5423525,43.7030588 C42.8796356,42.4570588 42.3636594,41.4997932 41.0234614,40.8579144 C41.0681347,39.6119144 40.3533624,39.0122353 38.8545743,39.0366667 C38.611105,38.2570838 37.9365386,37.879508 36.8219406,37.8994973 C36.9313901,36.7667701 36.7080238,35.9671979 35.5487525,35.8095045 C35.2338059,35.7917362 33.6233347,35.8850196 34.1839842,37.9927807 Z M29.7121901,35.058795 L28.863398,32.3935544 L31.1216317,30.7499893 L28.3250851,30.7499893 L27.4539564,28.0825276 L26.6051644,30.7499893 L23.8086178,30.7499893 L26.0668515,32.3935544 L25.1957228,35.058795 L27.4539564,33.4152299 L29.7121901,35.058795 Z M37.2463366,35.058795 L36.3752079,32.3935544 L38.6289743,30.7499893 L35.856998,30.7499893 L34.9858693,28.0825276 L34.1125069,30.7499893 L31.3405307,30.7499893 L33.5987644,32.3935544 L32.7276356,35.058795 L34.9858693,33.4152299 L37.2463366,35.058795 Z M44.8698297,35.058795 L43.998701,32.3935544 L46.2569347,30.7499893 L43.4603881,30.7499893 L42.611596,28.0825276 L41.742701,30.7499893 L38.9461545,30.7499893 L41.2043881,32.3935544 L40.355596,35.058795 L42.6138297,33.4152299 L44.8698297,35.058795 Z M8.18190891,39.7762709 C5.94824554,42.3282389 4.38468119,43.9296043 3.42197228,44.4848627 C3.28571881,45.4399073 3.01767921,46.3749626 2.5061703,47.4010802 C5.1217901,45.286656 7.26610693,43.2655152 8.92125149,41.2643636 L8.18190891,39.7762709 Z M7.3107802,37.9283708 C6.39274455,39.061098 5.05254653,40.3959394 3.30805545,41.9284528 C3.28348515,42.0417255 3.30805545,42.2593868 3.28348515,42.3748806 C5.32058614,41.0622496 6.79480396,39.8406809 7.73517624,38.8412157 L7.3107802,37.9283708 Z M6.55356832,35.8605882 C5.92590891,36.6601604 5.12402376,37.615205 3.84636832,38.794574 L3.80392871,39.3720428 C4.87385347,38.5746916 5.90357228,37.7040463 6.86404752,36.7712121 L6.55356832,35.8605882 Z M5.97281584,33.1931266 C5.34515644,34.0393405 4.91852673,34.6590089 4.40478416,35.3053298 L4.36234455,36.171533 L6.14704158,34.3280749 C6.08226535,33.9504991 6.01302178,33.5707023 5.97281584,33.1931266 Z M5.92367525,29.9926168 C5.70254257,30.3701925 5.50151287,30.7499893 5.3228198,31.1275651 C4.94309703,31.7050339 4.94309703,32.2825027 4.94309703,32.4401961 L5.85666535,31.0631551 C5.88346931,30.7055686 5.90357228,30.3479822 5.92367525,29.9926168 Z M34.1147406,5.29472014 C34.1147406,5.56124421 34.318004,5.76113725 34.5882772,5.76113725 C34.8295129,5.76113725 35.0573465,5.56124421 35.0573465,5.29472014 C35.0573465,5.03041711 34.8295129,4.82830303 34.5882772,4.82830303 C34.318004,4.82830303 34.1147406,5.02819608 34.1147406,5.29472014 Z M29.9578931,3.07368627 C29.9333228,3.20694831 29.9824634,3.31577897 30.0941465,3.40462032 C30.1834931,3.52011408 30.4046257,3.58452406 30.695002,3.69335472 L31.5035881,4.05094118 C31.7470574,4.15977184 31.9525545,4.09536185 32.1736871,4.33967558 C32.3724832,4.564 32.4640634,4.80609269 32.5333069,5.00598574 C32.5980832,5.23253119 32.5980832,5.43020321 32.7142337,5.71893761 C32.8035802,5.98768271 32.7566733,6.09651337 32.8906931,6.16092335 C33.0448158,6.22533333 33.136396,6.20756506 33.2257426,6.09651337 C33.3150891,6.00767201 33.3597624,5.74114795 33.4066693,5.5412549 C33.4267723,5.36135116 33.5161188,5.07261676 33.7216158,4.82830303 C33.9204119,4.564 34.4162851,4.25083422 34.8853545,4.15977184 C35.3544238,4.09536185 35.5063129,4.13978253 35.8860356,4.05094118 C36.2925624,3.93988948 36.4935921,3.89768984 36.5583683,3.69335472 C36.6030416,3.49346168 36.6231446,3.25136898 36.3327683,3.16252763 C36.0423921,3.09811765 34.4788277,2.58505882 33.1162931,2.63170053 C31.776095,2.67612121 30.4582337,2.94042424 30.3197465,2.9182139 C30.0718099,2.91599287 29.9578931,3.07368627 29.9578931,3.07368627 Z M31.0523881,5.09482709 C31.0523881,5.34136185 31.2779881,5.56124421 31.5214574,5.56124421 C31.7917307,5.56124421 31.9905267,5.34136185 31.9905267,5.09482709 C31.9905267,4.82830303 31.789497,4.60619964 31.5214574,4.60619964 C31.2757545,4.60619964 31.0523881,4.82830303 31.0523881,5.09482709 Z M27.8336792,2.20748307 C27.8336792,2.20748307 31.9212832,1.69664528 32.8393188,1.67665597 C33.7573545,1.65000357 35.4973782,1.98537968 36.2166178,2.11864171 C36.9559604,2.25190374 38.3631683,2.16306239 38.4525149,2.22747237 C38.5418614,2.31853476 38.6937505,2.49621747 38.4726178,2.67390018 C38.2470178,2.84936185 37.3535525,3.38463102 37.3535525,3.58452406 C37.3535525,3.80662745 37.4004594,3.96209982 37.2642059,4.07093048 C37.1100832,4.15977184 36.9738297,4.07093048 36.5248634,4.29969697 C36.082598,4.49959002 35.7654178,4.71725134 35.6760713,4.89715508 C35.5867248,5.05484848 35.5442851,5.00820677 35.5666218,5.23253119 C35.5867248,5.43242424 35.7899881,5.58567558 35.6760713,5.6722959 C35.5867248,5.76113725 35.5241822,5.6722959 35.4348356,5.76113725 C35.3454891,5.84997861 35.0551129,6.14315508 34.6954931,6.14315508 C34.3358733,6.14315508 34.3358733,6.0787451 34.0678337,6.16314439 C33.3530614,6.40745811 33.1520317,6.8983066 33.0872554,7.09819964 C33.0180119,7.32252406 32.9733386,7.36472371 32.8839921,7.27588235 C32.7968792,7.21147237 32.8393188,7.12263102 32.6829624,6.85388592 C32.5489426,6.61179323 32.3032396,6.05653476 31.9681901,6.00989305 C31.6309069,5.941041 31.0300515,5.92105169 30.8044515,5.76335829 C30.6011881,5.58789661 30.3599525,5.58789661 30.3800554,5.4102139 C30.4247287,5.23475223 30.6279921,5.23475223 30.6279921,4.94379679 C30.6279921,4.63063102 30.5140752,4.32190731 30.0204356,4.03317291 C29.5513663,3.7444385 29.0599604,3.65559715 28.9907168,3.54232442 C28.9482772,3.40684135 28.9907168,3.38907308 29.0398574,3.25359002 C29.1046337,3.11810695 29.2386535,3.16474866 28.9907168,3.07590731 C28.7494812,3.01149733 28.0525782,2.85158289 27.9006891,2.69833155 C27.762202,2.54285918 27.6527525,2.25412478 27.7197624,2.2296934 C27.7644356,2.18305169 27.8336792,2.20748307 27.8336792,2.20748307 Z M83.9254337,27.5716898 C83.9254337,33.5929127 84.0817901,40.238246 84.394503,47.4854795 C88.5513505,47.6653832 91.3233267,47.7542246 92.6679921,47.7542246 C96.3312,47.7542246 99.0830733,47.4010802 100.912444,46.730328 C102.210202,46.2439216 103.239921,45.355508 104.019469,44.107287 L104.828055,44.3738111 C104.872729,44.9557219 104.669465,45.9507451 104.222733,47.3766488 C103.776,48.7981105 103.34937,49.8442175 102.98975,50.5105276 C100.445608,50.2440036 92.9069941,50.1085205 80.3694416,50.1085205 L78.0218614,50.1085205 L77.6220356,49.089066 L78.0665347,39.8406809 C78.2027881,36.6601604 78.2921347,32.5734581 78.2921347,27.5716898 C78.2921347,24.237918 77.9570851,18.7430802 77.9570851,18.7430802 L77.7314851,15.1183529 L78.1313109,14.0944563 L84.1934733,14.0944563 L84.593299,15.1183529 L84.4146059,18.6542389 C84.4146059,18.6542389 83.9254337,24.6154938 83.9254337,27.5716898 Z M196.397085,49.288959 L196.017362,50.2217932 L190.721347,50.2217932 L190.245576,49.288959 L190.245576,46.3283209 C188.007446,49.1090553 185.085814,50.4860963 181.442709,50.4860963 C177.122804,50.4860963 173.459596,48.9735722 170.399477,45.9507451 C167.354994,42.930139 165.836103,39.2632121 165.836103,34.9521854 C165.836103,30.6811373 167.354994,27.0386417 170.421814,23.9891622 C173.479699,20.9685561 177.167477,19.4560321 181.485149,19.4560321 C185.26004,19.4560321 188.346962,20.6553904 190.72358,23.1029697 C190.72358,17.6991943 190.567224,18.3877148 190.24781,10.3409091 L190.72358,9.40585383 L196.019596,9.40585383 L196.399319,10.3409091 C195.992792,17.1239465 195.793996,18.010139 195.793996,27.8137825 C195.791762,34.2636649 195.992792,41.4398253 196.397085,49.288959 Z M190.721347,30.8388307 C189.463794,24.7709661 185.867596,21.745918 179.964024,21.745918 C177.636547,21.745918 175.71783,22.7675936 174.219042,24.8353761 C172.697917,26.9031586 171.938471,29.54841 171.938471,32.7933405 C171.938471,33.548492 172.001014,34.3280749 172.139501,35.1520784 C172.588467,38.9966881 173.747739,42.2016399 175.646352,44.7313975 C177.5472,47.2878075 179.8032,48.5560178 182.40095,48.5560178 C184.190115,48.5560178 185.845259,47.9985383 187.366384,46.8880214 C188.885275,45.7997148 189.932863,44.2871907 190.513616,42.3526702 C190.605196,39.4830945 190.67444,35.6384848 190.721347,30.8388307 Z M223.446749,40.9734082 C223.446749,43.974025 222.238337,46.3971729 219.80141,48.176221 C217.592317,49.8864171 214.932024,50.7526203 211.824998,50.7526203 C208.711271,50.7526203 206.010772,50.1085205 203.732436,48.7958895 L199.526448,47.1767558 C199.526448,44.4204528 199.749814,42.4170802 200.218883,41.1733012 C201.965608,43.9495936 203.484499,45.7330838 204.733117,46.5060036 C207.129838,47.9319073 209.477418,48.6670695 211.775857,48.6670695 C213.404198,48.6670695 214.952127,48.1118111 216.450915,47.0434938 C218.101592,45.8663458 218.950384,44.5315045 218.950384,42.9967701 C218.950384,41.1932906 218.213275,39.7318503 216.741291,38.596902 C215.691469,37.7551301 213.812958,37.0221889 211.087889,36.371426 C207.82004,35.5762959 205.651152,34.9099857 204.583461,34.4191373 C202.298424,33.3952406 200.777299,31.8405169 200.066994,29.7727344 C199.709608,28.7288485 199.528681,27.7049519 199.528681,26.663287 C199.528681,25.2595936 200.089331,23.8403529 201.208396,22.4144492 C202.209077,21.1018182 203.596182,20.1467736 205.385347,19.5715258 C206.732246,19.1695187 208.673299,18.9696257 211.219675,18.9696257 C212.428087,18.9696257 214.507628,19.2850125 217.476166,19.906902 C219.133545,20.2844777 220.788689,20.6154118 222.4416,20.9285775 C222.580087,24.173508 222.470638,26.665508 222.111018,28.4156827 C220.274947,25.6638217 218.693513,23.8647843 217.346614,23.0163494 C215.445766,21.7503601 213.279113,21.1262496 210.81985,21.1262496 C209.122265,21.1262496 207.873648,21.350574 207.062828,21.7925597 C205.13741,22.8808663 204.176935,24.2201497 204.176935,25.7726524 C204.176935,27.0830624 204.893941,28.1758111 206.323485,29.0198039 C207.623477,29.8393654 209.720887,30.6389376 212.60678,31.4185205 C215.492673,32.2003244 217.433727,32.8422032 218.42324,33.35082 C221.769267,35.1498574 223.446749,37.6862781 223.446749,40.9734082 Z M85.044499,58.9571194 L84.5061861,58.9771087 C84.1063604,57.9376649 83.2977743,57.4023957 82.0469228,57.4023957 C81.2182337,57.4023957 80.5280317,57.7155615 79.9673822,58.3596613 C79.384396,59.0015401 79.0940198,59.783344 79.0940198,60.6917469 C79.0940198,61.7156435 79.4290693,62.604057 80.0768317,63.3592086 C80.7044911,64.0943708 81.3946931,64.4719465 82.1541386,64.4719465 C83.3379802,64.4719465 84.1666693,64.1587807 84.633505,63.5613226 L84.9529188,64.0277398 C84.593299,64.4497362 84.2537822,64.7606809 83.9232,64.9161533 C83.4742337,65.1382567 82.8510416,65.2493084 82.0647921,65.2493084 C80.9256238,65.2493084 79.9182416,64.8273119 79.0471129,63.978877 C78.1536475,63.1393262 77.7069149,62.0710089 77.7069149,60.8494403 C77.7069149,59.7566916 78.1268436,58.7772157 79.0247762,57.9154545 C79.895905,57.0692406 80.9032871,56.6272549 82.0223525,56.6272549 C82.6433109,56.6272549 83.3826535,56.8027166 84.2113426,57.1158824 C84.4570455,57.2047237 84.7027485,57.224713 84.9261149,57.1825134 L85.0400317,57.2469234 L85.0400317,58.9571194 L85.044499,58.9571194 Z M93.8272634,57.0670196 C93.7379168,58.3996399 93.7178139,59.6900606 93.7178139,60.9560499 C93.7178139,62.0043779 93.7379168,63.2925775 93.8272634,64.8051016 L93.7178139,65.0893939 L92.3999525,65.0893939 L92.2860356,64.8051016 L92.3508119,63.0926845 C92.3999525,62.537426 92.3999525,61.8266952 92.3999525,60.9560499 C92.3999525,60.112057 92.3753822,58.8216364 92.2860356,57.0670196 L92.3999525,56.8004955 L93.7178139,56.8004955 L93.8272634,57.0670196 Z M108.783873,57.5134474 L106.657426,57.4668057 L105.297125,57.4912371 C105.227881,58.5795437 105.207778,59.7367023 105.207778,60.9582709 C105.207778,62.0510196 105.227881,63.3592086 105.297125,64.8917219 L105.227881,65.091615 L103.84301,65.091615 L103.75143,64.8917219 L103.84301,63.2037362 C103.84301,62.6262674 103.86758,61.8688948 103.86758,60.9560499 C103.86758,60.043205 103.84301,59.3124848 103.81844,58.7572264 L103.753663,57.4668057 L102.435802,57.4668057 L100.333925,57.5134474 C100.378598,57.155861 100.425505,56.9315365 100.492515,56.8004955 L100.581861,56.8004955 L102.790954,56.8004955 L103.688887,56.8004955 L104.560016,56.8004955 L105.542828,56.8004955 L106.52564,56.8004955 L108.535937,56.8004955 L108.645386,56.8004955 C108.71463,56.9337576 108.743667,57.155861 108.783873,57.5134474 Z M122.107675,56.9093262 L121.169537,58.2463886 C120.700467,58.9371301 120.025901,59.914385 119.110099,61.227016 L119.110099,61.4691087 L119.246352,64.8917219 L119.157006,65.091615 L117.747564,65.091615 L117.687255,64.8917219 C117.747564,63.0926845 117.794471,61.9621783 117.794471,61.4691087 L117.794471,61.091533 C117.099802,60.1142781 116.4096,59.1348021 115.670257,58.1797576 L114.801362,56.9093262 L114.866139,56.8004955 L116.20857,56.8004955 L116.389497,56.9093262 L117.079699,58.0909162 C117.660451,59.1348021 118.221101,60.043205 118.73261,60.8472193 C119.087762,60.3585918 119.608206,59.4657362 120.320745,58.1797576 L121.017648,56.9093262 L121.196341,56.8004955 L122.045133,56.8004955 L122.107675,56.9093262 Z M146.365259,58.9571194 L145.826947,58.9771087 C145.447224,57.9376649 144.618535,57.4023957 143.36545,57.4023957 C142.538994,57.4023957 141.844325,57.7155615 141.285909,58.3596613 C140.705156,59.0015401 140.41478,59.783344 140.41478,60.6917469 C140.41478,61.7156435 140.74983,62.604057 141.397592,63.3592086 C142.023018,64.0943708 142.717687,64.4719465 143.477133,64.4719465 C144.660974,64.4719465 145.509766,64.1587807 145.958733,63.5613226 L146.269212,64.0277398 C145.911826,64.4497362 145.57901,64.7606809 145.24396,64.9161533 C144.797228,65.1382567 144.191905,65.2493084 143.412356,65.2493084 C142.248618,65.2493084 141.243469,64.8273119 140.370107,63.978877 C139.478875,63.1393262 139.027675,62.0710089 139.027675,60.8494403 C139.027675,59.7566916 139.454305,58.7772157 140.345537,57.9154545 C141.221133,57.0692406 142.224048,56.6272549 143.343113,56.6272549 C143.993109,56.6272549 144.710115,56.8027166 145.532103,57.1158824 C145.78004,57.2047237 146.03021,57.224713 146.249109,57.1825134 L146.363026,57.2469234 L146.363026,58.9571194 L146.365259,58.9571194 Z M161.788705,60.9360606 C161.788705,62.0909982 161.317402,63.1148948 160.356927,64.0010873 C159.418788,64.8895009 158.368966,65.3381497 157.227564,65.3381497 C156.021386,65.3381497 154.946994,64.8917219 154.033426,64.0255187 C153.135493,63.1393262 152.666424,62.1109875 152.666424,60.9360606 C152.666424,59.7544706 153.135493,58.735016 154.095968,57.8221711 C155.036341,56.9093262 156.088396,56.4473512 157.227564,56.4473512 C158.411406,56.4473512 159.461228,56.9093262 160.399366,57.8021818 C161.317402,58.7105847 161.788705,59.7544706 161.788705,60.9360606 Z M160.399366,60.9360606 C160.356927,59.912164 159.999541,59.0237504 159.307105,58.2930303 C158.634772,57.5334367 157.899897,57.155861 157.093545,57.155861 C156.204547,57.155861 155.483073,57.5334367 154.879984,58.2685989 C154.274661,59.0237504 154.011089,59.8877326 154.078099,60.9360606 C154.098202,61.9599572 154.457822,62.8239394 155.152491,63.5790909 C155.82259,64.3342424 156.555232,64.7118182 157.361584,64.7118182 C158.232713,64.7118182 158.951952,64.3342424 159.550574,63.5990802 C160.160364,62.8461497 160.423937,61.9599572 160.399366,60.9360606 Z M174.886907,56.9781783 C174.79756,57.5134474 174.755121,58.8216364 174.755121,60.9560499 L174.755121,62.4463636 C174.70598,62.9572014 174.484848,63.4946916 174.085022,64.0477291 C173.566812,64.8073226 172.854273,65.2048877 171.958574,65.224877 C171.107549,65.2692977 170.479889,65.2026667 170.037624,65.024984 C169.45017,64.8051016 169.030242,64.5341355 168.780071,64.2009804 C168.541069,63.847836 168.360143,63.2703672 168.290899,62.401943 L168.268562,60.9560499 C168.268562,58.799426 168.221655,57.489016 168.130075,56.9781783 L168.197085,56.8004955 L169.539517,56.8004955 L169.628863,56.9781783 L169.539517,58.6905954 C169.51718,59.2680642 169.497077,60.0232157 169.497077,60.9560499 C169.497077,61.5335187 169.51718,61.9599572 169.539517,62.1820606 C169.586424,62.6262674 169.655667,62.9594225 169.738313,63.2037362 C170.03539,64.0721604 170.747929,64.5141462 171.893798,64.5141462 C172.246717,64.5141462 172.62644,64.3808841 173.032966,64.0943708 C173.363549,63.850057 173.613719,63.5368913 173.794646,63.1593155 C173.904095,62.8927914 173.993442,62.5129947 174.033648,62.0265882 L174.055984,60.9582709 C174.055984,60.0254367 174.033648,59.2702852 174.013545,58.6928164 L173.944301,56.9803993 L174.013545,56.8027166 L174.819897,56.8027166 L174.886907,56.9781783 Z M188.637339,64.8917219 L188.547992,65.091615 L186.959857,65.091615 L186.738725,64.8917219 C186.580135,64.6274189 186.401442,64.3608948 186.200412,64.0943708 L185.619659,63.3369982 C185.170693,62.6462567 184.458154,61.6490125 183.52225,60.2919608 L182.782907,59.3147059 C182.713663,59.8721854 182.671224,60.4274439 182.671224,60.9582709 C182.671224,62.0510196 182.713663,63.3592086 182.782907,64.8917219 L182.713663,65.091615 L181.931881,65.091615 L181.842535,64.8917219 L181.931881,63.2037362 C181.954218,62.6262674 181.954218,61.8688948 181.954218,60.9560499 L181.911778,59.2036542 L181.842535,57.5334367 L181.842535,56.9781783 L181.931881,56.8004955 L182.85215,56.8004955 C183.209537,57.4246061 183.651802,58.1153476 184.149909,58.8216364 C184.639081,59.5812299 185.349386,60.6673155 186.336665,62.0909982 L187.746107,64.0255187 L187.76621,63.4236185 C187.788547,62.7817398 187.80865,61.9621783 187.80865,60.9582709 C187.80865,60.0254367 187.788547,59.2702852 187.76621,58.6928164 L187.676863,56.9803993 L187.76621,56.8027166 L188.547992,56.8027166 L188.637339,56.9803993 C188.547992,58.3174617 188.505552,59.647861 188.505552,60.9582709 C188.505552,62.0487986 188.547992,63.3569875 188.637339,64.8917219 Z M202.432444,58.9571194 L201.894131,58.9771087 C201.494305,57.9376649 200.685719,57.4023957 199.434867,57.4023957 C198.606178,57.4023957 197.915976,57.7155615 197.355327,58.3596613 C196.776808,59.0015401 196.486432,59.783344 196.486432,60.6917469 C196.486432,61.7156435 196.817014,62.604057 197.464776,63.3592086 C198.092436,64.0943708 198.784871,64.4719465 199.544317,64.4719465 C200.730392,64.4719465 201.581418,64.1587807 202.030384,63.5613226 L202.340863,64.0277398 C201.981244,64.4497362 201.650661,64.7606809 201.311145,64.9161533 C200.864412,65.1382567 200.261323,65.2493084 199.484008,65.2493084 C198.315802,65.2493084 197.306186,64.8273119 196.437291,63.978877 C195.548293,63.1393262 195.097093,62.0710089 195.097093,60.8494403 C195.097093,59.7566916 195.517022,58.7772157 196.417188,57.9154545 C197.288317,57.0692406 198.295699,56.6272549 199.414764,56.6272549 C200.062527,56.6272549 200.772832,56.8027166 201.601521,57.1158824 C201.849457,57.2047237 202.092927,57.224713 202.32076,57.1825134 L202.43021,57.2469234 L202.43021,58.9571194 L202.432444,58.9571194 Z M211.217442,57.0670196 C211.128095,58.3996399 211.105758,59.6900606 211.105758,60.9560499 C211.105758,62.0043779 211.128095,63.2925775 211.217442,64.8051016 L211.105758,65.0893939 L209.808,65.0893939 L209.676214,64.8051016 L209.745457,63.0926845 C209.787897,62.537426 209.805766,61.8266952 209.805766,60.9560499 C209.805766,60.112057 209.763327,58.8216364 209.67398,57.0670196 L209.805766,56.8004955 L211.103525,56.8004955 L211.217442,57.0670196 Z" id="Shape"></path>
            </g>
        </g>
    </g>
</svg>