<?xml version="1.0" encoding="UTF-8"?>
<svg width="68px" height="68px" viewBox="0 0 68 68" version="1.1" xmlns="http://www.w3.org/2000/svg" xmlns:xlink="http://www.w3.org/1999/xlink">
    <!-- Generator: Sketch 43.2 (39069) - http://www.bohemiancoding.com/sketch -->
    <title>Group 2</title>
    <desc>Created with Sketch.</desc>
    <defs></defs>
    <g id="Page-1" stroke="none" stroke-width="1" fill="none" fill-rule="evenodd">
        <g id="Desktop-HD-Copy-2" transform="translate(-59.000000, -1257.000000)" fill="#FFFFFF">
            <g id="Group-2" transform="translate(59.000000, 1257.000000)">
                <path d="M34,68 C15.2223185,68 0,52.7776815 0,34 C0,15.2223185 15.2223185,0 34,0 C52.7776815,0 68,15.2223185 68,34 C68,52.7776815 52.7776815,68 34,68 Z M34,61.6 C49.2430591,61.6 61.6,49.2430591 61.6,34 C61.6,18.7569409 49.2430591,6.4 34,6.4 C18.7569409,6.4 6.4,18.7569409 6.4,34 C6.4,49.2430591 18.7569409,61.6 34,61.6 Z" id="Combined-Shape"></path>
                <g id="Group" transform="translate(14.446194, 24.771122)">
                    <path d="M9.15097019,5.09346593 C7.86456375,5.09346593 6.90457335,5.54946137 6.27097019,6.46146593 C5.63736702,7.37347049 5.32057019,8.57825844 5.32057019,10.0758659 L5.32057019,16.7862659 L1.00057019,16.7862659 L1.00057019,1.29186593 L5.32057019,1.29186593 L5.32057019,3.33666593 C5.87737297,2.70306276 6.57336601,2.16546814 7.40857019,1.72386593 C8.24377436,1.28226372 9.09336587,1.05186602 9.95737019,1.03266593 L9.98617019,5.09346593 L9.15097019,5.09346593 Z M27.1371838,8.43426593 L27.1371838,16.7862659 L22.7883838,16.7862659 L22.7883838,8.31906593 C22.7883838,7.09025978 22.6011857,6.18786881 22.2267838,5.61186593 C21.8523819,5.03586305 21.247588,4.74786593 20.4123838,4.74786593 C19.5771796,4.74786593 18.837987,5.05986281 18.1947838,5.68386593 C17.5515806,6.30786905 17.2299838,7.22465988 17.2299838,8.43426593 L17.2299838,16.7862659 L12.9099838,16.7862659 L12.9099838,1.29186593 L17.2299838,1.29186593 L17.2299838,3.04866593 C18.4203898,1.70465921 19.7835761,1.03266593 21.3195838,1.03266593 C22.2987887,1.03266593 23.1867798,1.32066305 23.9835838,1.89666593 C24.7803878,2.47266881 25.3803818,3.1734618 25.7835838,3.99906593 C26.3787868,3.05826122 27.1803788,2.32866852 28.1883838,1.81026593 C29.1963889,1.29186334 30.2091787,1.03266593 31.2267838,1.03266593 C33.0507929,1.03266593 34.5195783,1.5750605 35.6331838,2.65986593 C36.7467894,3.74467135 37.3035838,5.31425566 37.3035838,7.36866593 L37.3035838,16.7862659 L32.9547838,16.7862659 L32.9547838,8.31906593 C32.9547838,5.93825402 32.0811926,4.74786593 30.3339838,4.74786593 C29.4699795,4.74786593 28.721187,5.05986281 28.0875838,5.68386593 C27.4539807,6.30786905 27.1371838,7.22465988 27.1371838,8.43426593 L27.1371838,8.43426593 Z" id="rm" transform="translate(19.152077, 8.909466) rotate(-2.000000) translate(-19.152077, -8.909466) "></path>
                </g>
            </g>
        </g>
    </g>
</svg>