<?xml version="1.0" encoding="UTF-8" standalone="no"?>
<svg width="85px" height="85px" viewBox="0 0 85 85" version="1.1" xmlns="http://www.w3.org/2000/svg" xmlns:xlink="http://www.w3.org/1999/xlink">
    <!-- Generator: Sketch 39.1 (31720) - http://www.bohemiancoding.com/sketch -->
    <title>Slice 1</title>
    <desc>Created with Sketch.</desc>
    <defs></defs>
    <g id="Page-1" stroke="none" stroke-width="1" fill="none" fill-rule="evenodd">
        <path d="M42.5,85 C65.9721019,85 85,65.9721019 85,42.5 C85,19.0278981 65.9721019,0 42.5,0 C19.0278981,0 0,19.0278981 0,42.5 C0,65.9721019 19.0278981,85 42.5,85 Z M42.5,77 C61.5538239,77 77,61.5538239 77,42.5 C77,23.4461761 61.5538239,8 42.5,8 C23.4461761,8 8,23.4461761 8,42.5 C8,61.5538239 23.4461761,77 42.5,77 Z" id="Combined-Shape" fill="#E67E22"></path>
        <path d="M29.4957424,37.289902 C27.8877344,37.289902 26.6877464,37.8598963 25.8957424,38.999902 C25.1037385,40.1399077 24.7077424,41.6458926 24.7077424,43.517902 L24.7077424,51.905902 L19.3077424,51.905902 L19.3077424,32.537902 L24.7077424,32.537902 L24.7077424,35.093902 C25.4037459,34.301898 26.2737372,33.6299048 27.3177424,33.077902 C28.3617476,32.5258992 29.423737,32.2379021 30.5037424,32.213902 L30.5397424,37.289902 L29.4957424,37.289902 Z M51.9785095,41.465902 L51.9785095,51.905902 L46.5425095,51.905902 L46.5425095,41.321902 C46.5425095,39.7858943 46.3085118,38.6579056 45.8405095,37.937902 C45.3725071,37.2178984 44.6165147,36.857902 43.5725095,36.857902 C42.5285042,36.857902 41.6045135,37.2478981 40.8005095,38.027902 C39.9965054,38.8079059 39.5945095,39.9538944 39.5945095,41.465902 L39.5945095,51.905902 L34.1945095,51.905902 L34.1945095,32.537902 L39.5945095,32.537902 L39.5945095,34.733902 C41.0825169,33.0538936 42.7864999,32.213902 44.7065095,32.213902 C45.9305156,32.213902 47.0405045,32.5738984 48.0365095,33.293902 C49.0325144,34.0139056 49.7825069,34.8898968 50.2865095,35.921902 C51.0305132,34.7458961 52.0325032,33.8339052 53.2925095,33.185902 C54.5525158,32.5378988 55.8185031,32.213902 57.0905095,32.213902 C59.3705209,32.213902 61.2065025,32.8918952 62.5985095,34.247902 C63.9905164,35.6039088 64.6865095,37.5658892 64.6865095,40.133902 L64.6865095,51.905902 L59.2505095,51.905902 L59.2505095,41.321902 C59.2505095,38.3458871 58.1585204,36.857902 55.9745095,36.857902 C54.8945041,36.857902 53.9585134,37.2478981 53.1665095,38.027902 C52.3745055,38.8079059 51.9785095,39.9538944 51.9785095,41.465902 L51.9785095,41.465902 Z" id="rm" fill="#E67E22" transform="translate(43.167126, 42.059902) rotate(-2.000000) translate(-43.167126, -42.059902) "></path>
    </g>
</svg>