<?xml version="1.0" encoding="UTF-8"?>
<svg width="201px" height="108px" viewBox="0 0 201 108" version="1.1" xmlns="http://www.w3.org/2000/svg" xmlns:xlink="http://www.w3.org/1999/xlink">
    <!-- Generator: Sketch 43.2 (39069) - http://www.bohemiancoding.com/sketch -->
    <title>museums-logo-w</title>
    <desc>Created with Sketch.</desc>
    <defs></defs>
    <g id="Page-1" stroke="none" stroke-width="1" fill="none" fill-rule="evenodd">
        <g id="Desktop-HD-Copy-2" transform="translate(-528.000000, -954.000000)" fill="#FFFFFF">
            <g id="museums-logo-w" transform="translate(528.000000, 954.000000)">
                <path d="M26.4530357,107.118 L21.7690179,101.466 C23.7822967,98.763798 24.7858281,95.4384367 24.6045536,92.07 L21.5357143,92.07 C21.7164966,94.5493211 21.0864477,97.0201659 19.7410714,99.108 L11.9164286,89.658 C12.6522321,89.136 14.195625,88.11 14.195625,88.11 C16.1756917,87.0135399 17.4563169,84.9747337 17.5875,82.71 C17.5986509,80.9549059 16.8935675,79.271612 15.6360265,78.0511138 C14.3784856,76.8306156 12.6779337,76.1791357 10.929375,76.248 C9.17051637,76.1487189 7.44883791,76.7822523 6.17130934,77.9988457 C4.89378076,79.2154391 4.17378626,80.9071166 4.18151786,82.674 C4.45716739,85.2225224 5.6276467,87.5896099 7.48366071,89.352 C4.12767857,91.602 0.861428571,93.924 0.861428571,98.532 C0.861428571,103.932 4.59428571,107.532 10.5345536,107.532 C13.8805438,107.558475 17.1030137,106.265639 19.5077679,103.932 L22.2535714,107.298 L26.4530357,107.118 Z M17.7669643,101.502 C15.8618404,103.408185 13.2793819,104.476629 10.5883929,104.472 C8.90355952,104.599211 7.24344418,104.007321 6.01669461,102.842029 C4.78994504,101.676737 4.11050576,100.046278 4.145625,98.352 C4.145625,94.86 6.76580357,93.132 9.38598214,91.332 L17.8208036,101.502 L17.7669643,101.502 Z M14.5904464,82.62 C14.5904464,84.42 13.2624107,85.464 11.8446429,86.454 L10.2115179,87.57 C8.18357143,85.104 7.46571429,83.97 7.46571429,82.53 C7.40748961,81.5584919 7.76690824,80.608493 8.45306001,79.920293 C9.13921178,79.232093 10.0863833,78.8716015 11.055,78.93 C13.0373078,78.93 14.6442857,80.5417749 14.6442857,82.53 L14.5904464,82.62 Z" id="Shape"></path>
                <path d="M56.2441071,95.904 L56.2441071,91.026 L45.47625,91.026 L45.47625,93.906 L52.9958036,93.906 L52.9958036,96.228 C53.1140287,98.2421064 52.4734973,100.227257 51.2011607,101.79 C49.760973,103.472684 47.651223,104.428531 45.4403571,104.4 C43.457529,104.424935 41.5486033,103.646105 40.1461607,102.24 C38.2079464,100.26 37.9925893,98.136 37.9925893,91.728 C37.9925893,85.32 38.2079464,83.232 40.1461607,81.252 C42.1325175,79.2616684 45.0589831,78.5470896 47.735209,79.3989208 C50.4114349,80.2507519 52.3915661,82.5270793 52.8701786,85.302 L56.1364286,85.302 C55.4773406,79.8969557 50.7933176,75.9036513 45.3685714,76.122 C42.4810584,76.1196031 39.7135714,77.2804884 37.6875,79.344 C34.8160714,82.224 34.8160714,85.248 34.8160714,91.764 C34.8160714,98.28 34.8160714,101.286 37.6875,104.184 C39.8413426,106.288798 42.7476306,107.438009 45.7540855,107.373706 C48.7605405,107.309404 51.6153423,106.036976 53.6777679,103.842 C55.5966812,101.666701 56.5435692,98.7980423 56.2979464,95.904 L56.2441071,95.904 Z" id="Shape" fill-rule="nonzero"></path>
                <path d="M78.3720536,107.118 L78.3720536,92.718 C78.3720536,88.11 75.5724107,85.644 69.9013393,85.644 C66.455625,85.644 64.32,86.328 62.4176786,88.794 L64.6071429,90.72 C65.7915799,88.9463329 67.8836387,88.0090905 69.9910714,88.308 C73.8675,88.308 75.375,89.856 75.375,92.97 L75.375,95.004 L68.9142857,95.004 C64.194375,95.004 61.6100893,97.416 61.6100893,101.124 C61.5610949,102.717706 62.1341617,104.267668 63.2073214,105.444 C64.8223486,106.933482 67.0042809,107.643248 69.1834821,107.388 C71.4597872,107.608474 73.7104979,106.765258 75.2852679,105.102 L75.2852679,107.136 L78.3720536,107.118 Z M75.2852679,99.612 C75.4201765,100.908086 75.0324307,102.20443 74.2084821,103.212 C72.9002001,104.322601 71.1904695,104.837703 69.4885714,104.634 C66.1325893,104.634 64.6250893,103.464 64.6250893,101.034 C64.6250893,98.604 66.1684821,97.29 69.345,97.29 L75.2852679,97.29 L75.2852679,99.576 L75.2852679,99.612 Z" id="Shape"></path>
                <path d="M93.4111607,107.118 L93.4111607,104.4 L91.7421429,104.4 C89.5885714,104.4 88.9066071,103.374 88.9066071,101.304 L88.9066071,76.41 L85.801875,76.41 L85.801875,101.466 C85.6204093,102.968661 86.1194506,104.473857 87.1619702,105.568285 C88.2044899,106.662713 89.6809005,107.231329 91.1858036,107.118 L93.4111607,107.118 Z" id="Shape" fill-rule="nonzero"></path>
                <path d="M106.189018,107.118 L106.189018,104.4 L104.52,104.4 C102.366429,104.4 101.684464,103.374 101.684464,101.304 L101.684464,76.41 L98.5797321,76.41 L98.5797321,101.466 C98.3982665,102.968661 98.8973078,104.473857 99.9398274,105.568285 C100.982347,106.662713 102.458758,107.231329 103.963661,107.118 L106.189018,107.118 Z" id="Shape" fill-rule="nonzero"></path>
                <path d="M126.558214,97.326 L126.558214,95.904 C126.558214,89.604 123.327857,85.644 117.872143,85.644 C112.416429,85.644 109.186071,89.658 109.186071,96.444 C109.186071,103.95 112.775357,107.244 118.428482,107.244 C121.369067,107.387086 124.21506,106.181711 126.163393,103.968 L124.063661,102.168 C122.677525,103.826096 120.601864,104.743975 118.446429,104.652 C114.408482,104.652 112.219018,101.97 112.219018,97.326 L126.558214,97.326 Z M123.471429,95.004 L112.290804,95.004 C112.258196,93.7722944 112.478094,92.5469916 112.936875,91.404 C113.787744,89.4239639 115.731414,88.1413626 117.881116,88.1413626 C120.030818,88.1413626 121.974488,89.4239639 122.825357,91.404 C123.284138,92.5469916 123.504036,93.7722944 123.471429,95.004 L123.471429,95.004 Z" id="Shape"></path>
                <path d="M147.160714,87.624 C145.837496,86.2514576 143.981933,85.5280611 142.081875,85.644 C139.75959,85.5719656 137.546151,86.6316857 136.141607,88.488 L136.141607,85.896 L133.126607,85.896 L133.126607,107.118 L136.213393,107.118 L136.213393,94.086 C136.072604,92.6416384 136.541897,91.2042196 137.5072,90.1231371 C138.472503,89.0420547 139.845419,88.416309 141.292232,88.398 C142.663583,88.326029 143.990238,88.8981934 144.881518,89.946 L147.160714,87.624 Z" id="Shape"></path>
                <path d="M154.339286,107.118 L154.339286,85.896 L151.234554,85.896 L151.234554,107.118 L154.339286,107.118 Z M154.554643,79.92 L154.554643,76.41 L151.055089,76.41 L151.055089,79.902 L154.554643,79.92 Z" id="Shape"></path>
                <path d="M178.315714,97.326 L178.315714,95.904 C178.315714,89.604 175.085357,85.644 169.629643,85.644 C164.173929,85.644 160.943571,89.658 160.943571,96.444 C160.943571,103.95 164.532857,107.244 170.185982,107.244 C173.127037,107.389746 175.974133,106.183903 177.920893,103.968 L175.821161,102.168 C174.436706,103.778908 172.394382,104.66722 170.275714,104.58 C166.237768,104.58 164.048304,101.898 164.048304,97.254 L178.315714,97.326 Z M175.228929,95.004 L164.030357,95.004 C163.994644,93.7720599 164.214655,92.5461252 164.676429,91.404 C165.527298,89.4239639 167.470967,88.1413626 169.62067,88.1413626 C171.770372,88.1413626 173.714042,89.4239639 174.564911,91.404 C175.023692,92.5469916 175.24359,93.7722944 175.210982,95.004 L175.228929,95.004 Z" id="Shape"></path>
                <path d="M200.138571,100.908 C200.138571,96.948 197.608125,95.508 193.911161,95.166 L190.519286,94.86 C187.845268,94.644 186.822321,93.564 186.822321,91.764 C186.822321,89.604 188.455446,88.272 191.542232,88.272 C193.554724,88.179708 195.539634,88.7693502 197.177411,89.946 L199.205357,87.93 C197.002286,86.3215266 194.317986,85.5151028 191.596071,85.644 C187.091518,85.644 183.825268,87.966 183.825268,91.854 C183.825268,95.346 186.014732,97.254 190.142411,97.542 L193.624018,97.848 C196.082679,98.064 197.213304,99.108 197.213304,100.944 C197.213304,103.446 195.059732,104.688 191.578125,104.688 C189.087625,104.885009 186.633819,103.992439 184.848214,102.24 L182.784375,104.31 C185.139015,106.481261 188.279265,107.587534 191.470446,107.37 C196.585179,107.37 200.066786,104.994 200.066786,100.908 L200.138571,100.908 Z" id="Shape" fill-rule="nonzero"></path>
                <polygon id="Shape" fill-rule="nonzero" points="28.2476786 68.976 28.2476786 38.268 24.9814286 38.268 15.2724107 60.048 5.29419643 38.268 2.02794643 38.268 2.02794643 68.976 5.29419643 68.976 5.29419643 45.648 13.8008036 64.134 16.6004464 64.134 24.9814286 45.648 24.9814286 68.976 28.2476786 68.976"></polygon>
                <path d="M52.9599107,68.976 L52.9599107,47.754 L49.873125,47.754 L49.873125,60.822 C49.873125,64.53 47.7733929,66.474 44.5789286,66.474 C41.3844643,66.474 39.4821429,64.566 39.4821429,60.822 L39.4821429,47.754 L36.3415179,47.754 L36.3415179,61.29 C36.2013441,63.4900658 36.9817734,65.649176 38.4950893,67.248 C39.9585184,68.5953774 41.8940681,69.3071975 43.8790179,69.228 C46.1781735,69.2925049 48.3871956,68.3297668 49.9090179,66.6 L49.9090179,68.976 L52.9599107,68.976 Z" id="Shape"></path>
                <path d="M75.9672321,62.766 C75.9672321,58.806 73.4367857,57.366 69.7398214,57.024 L66.4017857,56.736 C63.7457143,56.52 62.7048214,55.44 62.7048214,53.622 C62.7048214,51.462 64.3379464,50.13 67.4426786,50.13 C69.4551703,50.037708 71.4400799,50.6273502 73.0778571,51.804 L75.1058036,49.77 C72.902732,48.1615266 70.2184323,47.3551028 67.4965179,47.484 C62.9919643,47.484 59.7257143,49.806 59.7257143,53.694 C59.7257143,57.186 61.9151786,59.094 66.0428571,59.382 L69.5244643,59.688 C71.983125,59.904 73.11375,60.93 73.11375,62.784 C73.11375,65.286 70.9601786,66.528 67.4785714,66.528 C65.0401696,66.673049 62.6542898,65.7773079 60.9101786,64.062 L58.6848214,66.168 C61.039461,68.3392606 64.1797112,69.4455335 67.3708929,69.228 C72.485625,69.228 75.9672321,66.852 75.9672321,62.766 L75.9672321,62.766 Z" id="Shape" fill-rule="nonzero"></path>
                <path d="M98.23875,59.184 L98.23875,57.762 C98.23875,51.462 95.0083929,47.502 89.5526786,47.502 C84.0969643,47.502 80.8666071,51.516 80.8666071,58.302 C80.8666071,65.808 84.4558929,69.102 90.1090179,69.102 C93.0496025,69.2450863 95.8955955,68.0397106 97.8439286,65.826 L95.7441964,64.026 C94.3915341,65.6973016 92.3444671,66.6474777 90.19875,66.6 C86.1608036,66.6 83.9713393,63.936 83.9713393,59.274 L98.23875,59.184 Z M95.1160714,56.862 L83.9713393,56.862 C83.9387314,55.6302944 84.1586295,54.4049916 84.6174107,53.262 C85.4682798,51.2819639 87.4119496,49.9993626 89.5616518,49.9993626 C91.711354,49.9993626 93.6550238,51.2819639 94.5058929,53.262 C94.9646741,54.4049916 95.1845722,55.6302944 95.1519643,56.862 L95.1160714,56.862 Z" id="Shape"></path>
                <path d="M121.228125,68.976 L121.228125,47.754 L118.141339,47.754 L118.141339,60.822 C118.141339,64.53 116.041607,66.474 112.865089,66.474 C109.688571,66.474 107.678571,64.566 107.678571,60.822 L107.678571,47.754 L104.591786,47.754 L104.591786,61.29 C104.449401,63.4903823 105.230142,65.6503544 106.745357,67.248 C108.208786,68.5953774 110.144336,69.3071975 112.129286,69.228 C114.434649,69.2979041 116.651352,68.3346856 118.177232,66.6 L118.177232,68.976 L121.228125,68.976 Z" id="Shape"></path>
                <path d="M159.238661,68.976 L159.238661,55.386 C159.334734,53.1850448 158.508264,51.0441673 156.959464,49.482 C155.485981,48.1512695 153.557428,47.4420224 151.575536,47.502 C148.791503,47.4204156 146.161223,48.7802771 144.612321,51.102 C143.318048,48.7479524 140.79156,47.3479361 138.115714,47.502 C135.839987,47.4395591 133.652892,48.388153 132.139554,50.094 L132.139554,47.754 L128.980982,47.754 L128.980982,68.976 L132.067768,68.976 L132.067768,55.908 C132.067768,52.2 134.1675,50.256 137.361964,50.256 C140.556429,50.256 142.566429,52.146 142.566429,55.908 L142.566429,68.976 L145.671161,68.976 L145.671161,55.566 C145.562404,54.1270223 146.085155,52.7120903 147.102548,51.6916601 C148.119941,50.6712299 149.530662,50.1469183 150.965357,50.256 C154.141875,50.256 156.169821,52.146 156.169821,55.908 L156.169821,68.976 L159.238661,68.976 Z" id="Shape"></path>
                <path d="M182.012679,62.766 C182.012679,58.806 179.482232,57.366 175.785268,57.024 L172.393393,56.718 C169.719375,56.502 168.696429,55.422 168.696429,53.604 C168.696429,51.444 170.329554,50.112 173.434286,50.112 C175.446777,50.019708 177.431687,50.6093502 179.069464,51.786 L181.097411,49.752 C178.894339,48.1435266 176.210039,47.3371028 173.488125,47.466 C168.965625,47.466 165.717321,49.788 165.717321,53.676 C165.717321,57.168 167.906786,59.076 172.034464,59.364 L175.516071,59.67 C177.956786,59.886 179.105357,60.912 179.105357,62.766 C179.105357,65.268 176.951786,66.51 173.470179,66.51 C171.031777,66.655049 168.645897,65.7593079 166.901786,64.044 L164.837946,66.114 C167.191473,68.2871191 170.332546,69.3936817 173.524018,69.174 C178.63875,69.174 182.120357,66.798 182.120357,62.712 L182.012679,62.766 Z" id="Shape" fill-rule="nonzero"></path>
                <polygon id="Shape" fill-rule="nonzero" points="20.9434821 30.834 20.9434821 27.9 5.29419643 27.9 5.29419643 0.144 2.02794643 0.144 2.02794643 30.834 20.9434821 30.834"></polygon>
                <path d="M42.2997321,21.042 L42.2997321,19.62 C42.2997321,13.32 39.069375,9.36 33.6136607,9.36 C28.1579464,9.36 24.9275893,13.374 24.9275893,20.16 C24.9275893,27.666 28.516875,30.96 34.17,30.96 C37.1105846,31.1030863 39.9565777,29.8977106 41.9049107,27.684 L39.8051786,25.884 C38.4207238,27.4949082 36.3784002,28.3832198 34.2597321,28.296 C30.2217857,28.296 28.0323214,25.632 28.0323214,20.97 L42.2997321,21.042 Z M39.2129464,18.72 L28.0323214,18.72 C27.9997136,17.4882944 28.2196117,16.2629916 28.6783929,15.12 C29.5292619,13.1399639 31.4729317,11.8573626 33.6226339,11.8573626 C35.7723361,11.8573626 37.7160059,13.1399639 38.566875,15.12 C39.0256562,16.2629916 39.2455543,17.4882944 39.2129464,18.72 L39.2129464,18.72 Z" id="Shape"></path>
                <path d="M65.0916964,21.042 L65.0916964,19.62 C65.0916964,13.32 61.8613393,9.36 56.405625,9.36 C50.9499107,9.36 47.7195536,13.374 47.7195536,20.16 C47.7195536,27.666 51.3088393,30.96 56.9619643,30.96 C59.9025489,31.1030863 62.748542,29.8977106 64.696875,27.684 L62.5971429,25.884 C61.2126881,27.4949082 59.1703645,28.3832198 57.0516964,28.296 C53.01375,28.296 50.8242857,25.632 50.8242857,20.97 L65.0916964,21.042 Z M61.9869643,18.72 L50.8242857,18.72 C50.7885722,17.4880599 51.0085837,16.2621252 51.4703571,15.12 C52.3212262,13.1399639 54.264896,11.8573626 56.4145982,11.8573626 C58.5643004,11.8573626 60.5079702,13.1399639 61.3588393,15.12 C61.8176205,16.2629916 62.0375186,17.4882944 62.0049107,18.72 L61.9869643,18.72 Z" id="Shape"></path>
                <path d="M87.3452679,30.834 L87.3452679,0.144 L84.3482143,0.144 L84.3482143,12.078 C82.9349459,10.1758113 80.6379231,9.14656331 78.2823214,9.36 C76.3992066,9.2778881 74.5561997,9.9219677 73.1316964,11.16 C70.978125,13.32 70.5474107,16.848 70.5474107,20.16 C70.5474107,23.472 70.978125,27.018 73.1316964,29.16 C74.5552659,30.3996496 76.3989361,31.043961 78.2823214,30.96 C80.6267315,31.1787462 82.9184258,30.172287 84.3482143,28.296 L84.3482143,30.834 L87.3452679,30.834 Z M84.3482143,20.232 C84.3482143,24.372 83.66625,28.332 79.0540179,28.332 C74.4417857,28.332 73.6700893,24.372 73.6700893,20.232 C73.6700893,16.092 74.4058929,12.132 79.0540179,12.132 C83.7021429,12.132 84.3482143,16.092 84.3482143,20.232 Z" id="Shape"></path>
                <path d="M110.352589,24.624 C110.352589,20.664 107.822143,19.224 104.125179,18.882 L100.733304,18.576 C98.0772321,18.36 97.0363393,17.28 97.0363393,15.48 C97.0363393,13.32 98.6694643,11.988 101.75625,11.988 C103.768742,11.895708 105.753651,12.4853502 107.391429,13.662 L109.473214,11.646 C107.251333,10.0203466 104.538469,9.2129584 101.792143,9.36 C97.2875893,9.36 94.0033929,11.682 94.0033929,15.57 C94.0033929,19.062 96.1928571,20.97 100.320536,21.258 L103.802143,21.564 C106.260804,21.78 107.391429,22.806 107.391429,24.66 C107.391429,27.162 105.237857,28.404 101.75625,28.404 C99.2961431,28.5746147 96.8803829,27.684009 95.1160714,25.956 L93.0522321,28.026 C95.4068717,30.1972606 98.5471219,31.3035335 101.738304,31.086 C106.853036,31.086 110.334643,28.71 110.334643,24.624 L110.352589,24.624 Z" id="Shape" fill-rule="nonzero"></path>
            </g>
        </g>
    </g>
</svg>